<svg xmlns="http://www.w3.org/2000/svg" viewBox="0 0 500 500"><g id="freepik--background-complete--inject-71"><polygon points="450.37 186.24 415.79 186.24 415.79 228.24 406.89 228.24 406.89 204.46 362.91 204.46 362.91 242.11 357.09 242.11 357.09 153.75 318.87 153.75 318.87 178.01 299.28 178.01 299.28 208.18 293.35 208.18 293.35 189.21 258.6 189.21 258.6 245.84 248.44 245.84 248.44 199.79 216.66 199.79 216.66 164.83 195.05 164.83 195.05 144.92 170.06 144.92 170.06 233.24 161.66 233.24 161.66 196.38 120.48 196.38 120.48 249.14 114.79 249.14 114.79 206.08 73.03 206.08 73.03 167.28 49.63 167.28 49.63 382.7 450.37 382.7 450.37 186.24" style="fill:#ebebeb"></polygon><rect x="440.28" y="191.52" width="5.85" height="8.03" transform="translate(886.41 391.07) rotate(180)" style="fill:#fff"></rect><rect x="430.14" y="191.52" width="5.85" height="8.03" transform="translate(866.13 391.07) rotate(180)" style="fill:#fff"></rect><rect x="420" y="191.52" width="5.85" height="8.03" transform="translate(845.84 391.07) rotate(180)" style="fill:#fff"></rect><rect x="440.28" y="203.6" width="5.85" height="8.03" transform="translate(886.41 415.23) rotate(180)" style="fill:#fff"></rect><rect x="430.14" y="203.6" width="5.85" height="8.03" transform="translate(866.13 415.23) rotate(180)" style="fill:#fff"></rect><rect x="420" y="203.6" width="5.85" height="8.03" transform="translate(845.84 415.23) rotate(180)" style="fill:#fff"></rect><rect x="440.28" y="215.68" width="5.85" height="8.03" transform="translate(886.41 439.4) rotate(180)" style="fill:#fff"></rect><rect x="430.14" y="215.68" width="5.85" height="8.03" transform="translate(866.13 439.4) rotate(180)" style="fill:#fff"></rect><rect x="420" y="215.68" width="5.85" height="8.03" transform="translate(845.84 439.4) rotate(180)" style="fill:#fff"></rect><rect x="440.28" y="227.77" width="5.85" height="8.03" transform="translate(886.41 463.56) rotate(180)" style="fill:#fff"></rect><rect x="430.14" y="227.77" width="5.85" height="8.03" transform="translate(866.13 463.56) rotate(180)" style="fill:#fff"></rect><rect x="420" y="227.77" width="5.85" height="8.03" transform="translate(845.84 463.56) rotate(180)" style="fill:#fff"></rect><rect x="237.7" y="205.54" width="5.85" height="6.7" transform="translate(481.26 417.77) rotate(180)" style="fill:#fff"></rect><rect x="227.56" y="205.54" width="5.85" height="6.7" transform="translate(460.98 417.77) rotate(180)" style="fill:#fff"></rect><rect x="217.42" y="205.54" width="5.85" height="6.7" transform="translate(440.69 417.77) rotate(180)" style="fill:#fff"></rect><rect x="237.7" y="215.61" width="5.85" height="6.7" transform="translate(481.26 437.93) rotate(180)" style="fill:#fff"></rect><rect x="227.56" y="215.61" width="5.85" height="6.7" transform="translate(460.98 437.93) rotate(180)" style="fill:#fff"></rect><rect x="217.42" y="215.61" width="5.85" height="6.7" transform="translate(440.69 437.93) rotate(180)" style="fill:#fff"></rect><rect x="237.7" y="225.69" width="5.85" height="6.7" transform="translate(481.26 458.09) rotate(180)" style="fill:#fff"></rect><rect x="227.56" y="225.69" width="5.85" height="6.7" transform="translate(460.98 458.09) rotate(180)" style="fill:#fff"></rect><rect x="217.42" y="225.69" width="5.85" height="6.7" transform="translate(440.69 458.09) rotate(180)" style="fill:#fff"></rect><rect x="237.7" y="235.77" width="5.85" height="6.7" transform="translate(481.26 478.24) rotate(180)" style="fill:#fff"></rect><rect x="227.56" y="235.77" width="5.85" height="6.7" transform="translate(460.98 478.24) rotate(180)" style="fill:#fff"></rect><rect x="217.42" y="235.77" width="5.85" height="6.7" transform="translate(440.69 478.24) rotate(180)" style="fill:#fff"></rect><rect x="237.7" y="246.1" width="5.85" height="6.7" transform="translate(481.26 498.9) rotate(180)" style="fill:#fff"></rect><rect x="227.56" y="246.1" width="5.85" height="6.7" transform="translate(460.98 498.9) rotate(180)" style="fill:#fff"></rect><rect x="217.42" y="246.1" width="5.85" height="6.7" transform="translate(440.69 498.9) rotate(180)" style="fill:#fff"></rect><rect x="237.7" y="256.43" width="5.85" height="6.7" transform="translate(481.26 519.56) rotate(180)" style="fill:#fff"></rect><rect x="227.56" y="256.43" width="5.85" height="6.7" transform="translate(460.98 519.56) rotate(180)" style="fill:#fff"></rect><rect x="217.42" y="256.43" width="5.85" height="6.7" transform="translate(440.69 519.56) rotate(180)" style="fill:#fff"></rect><rect x="237.7" y="266.76" width="5.85" height="6.7" transform="translate(481.26 540.22) rotate(180)" style="fill:#fff"></rect><rect x="227.56" y="266.76" width="5.85" height="6.7" transform="translate(460.98 540.22) rotate(180)" style="fill:#fff"></rect><rect x="217.42" y="266.76" width="5.85" height="6.7" transform="translate(440.69 540.22) rotate(180)" style="fill:#fff"></rect><rect x="237.7" y="277.09" width="5.85" height="6.7" transform="translate(481.26 560.88) rotate(180)" style="fill:#fff"></rect><rect x="227.56" y="277.09" width="5.85" height="6.7" transform="translate(460.98 560.88) rotate(180)" style="fill:#fff"></rect><rect x="217.42" y="277.09" width="5.85" height="6.7" transform="translate(440.69 560.88) rotate(180)" style="fill:#fff"></rect><rect x="368.21" y="209.61" width="33.68" height="5.02" transform="translate(770.1 424.24) rotate(180)" style="fill:#fff"></rect><rect x="368.21" y="219.36" width="33.68" height="5.02" transform="translate(770.1 443.73) rotate(180)" style="fill:#fff"></rect><rect x="368.21" y="229.1" width="33.68" height="5.02" transform="translate(770.1 463.22) rotate(180)" style="fill:#fff"></rect><rect x="368.21" y="238.84" width="33.68" height="5.02" transform="translate(770.1 482.71) rotate(180)" style="fill:#fff"></rect><rect x="368.21" y="248.59" width="33.68" height="5.02" transform="translate(770.1 502.2) rotate(180)" style="fill:#fff"></rect><rect x="368.21" y="258.33" width="33.68" height="5.02" transform="translate(770.1 521.68) rotate(180)" style="fill:#fff"></rect><rect x="368.21" y="268.07" width="33.68" height="5.02" transform="translate(770.1 541.17) rotate(180)" style="fill:#fff"></rect><rect x="368.21" y="277.82" width="33.68" height="5.02" transform="translate(770.1 560.66) rotate(180)" style="fill:#fff"></rect><rect x="125.71" y="201.07" width="30.97" height="5.02" transform="translate(282.38 407.16) rotate(180)" style="fill:#fff"></rect><rect x="125.71" y="210.81" width="30.97" height="5.02" transform="translate(282.38 426.64) rotate(180)" style="fill:#fff"></rect><rect x="125.71" y="220.56" width="30.97" height="5.02" transform="translate(282.38 446.13) rotate(180)" style="fill:#fff"></rect><rect x="125.71" y="230.3" width="30.97" height="5.02" transform="translate(282.38 465.62) rotate(180)" style="fill:#fff"></rect><rect x="125.71" y="240.04" width="30.97" height="5.02" transform="translate(282.38 485.11) rotate(180)" style="fill:#fff"></rect><rect x="125.71" y="249.79" width="30.97" height="5.02" transform="translate(282.38 504.6) rotate(180)" style="fill:#fff"></rect><rect x="125.71" y="259.53" width="30.97" height="5.02" transform="translate(282.38 524.08) rotate(180)" style="fill:#fff"></rect><rect x="125.71" y="269.27" width="30.97" height="5.02" transform="translate(282.38 543.57) rotate(180)" style="fill:#fff"></rect><rect x="125.71" y="278.53" width="30.97" height="5.02" transform="translate(282.38 562.09) rotate(180)" style="fill:#fff"></rect><rect x="125.71" y="287.79" width="30.97" height="5.02" transform="translate(282.38 580.6) rotate(180)" style="fill:#fff"></rect><rect x="125.71" y="297.05" width="30.97" height="5.02" transform="translate(282.38 599.12) rotate(180)" style="fill:#fff"></rect><rect x="125.71" y="306.31" width="30.97" height="5.02" transform="translate(282.38 617.64) rotate(180)" style="fill:#fff"></rect><rect x="125.71" y="315.57" width="30.97" height="5.02" transform="translate(282.38 636.16) rotate(180)" style="fill:#fff"></rect><rect x="75.63" y="212.84" width="32.71" height="5.02" transform="translate(183.98 430.7) rotate(180)" style="fill:#fff"></rect><rect x="75.63" y="222.58" width="32.71" height="5.02" transform="translate(183.98 450.18) rotate(180)" style="fill:#fff"></rect><rect x="75.63" y="232.32" width="32.71" height="5.02" transform="translate(183.98 469.67) rotate(180)" style="fill:#fff"></rect><rect x="75.63" y="242.07" width="32.71" height="5.02" transform="translate(183.98 489.16) rotate(180)" style="fill:#fff"></rect><rect x="75.63" y="251.81" width="32.71" height="5.02" transform="translate(183.98 508.65) rotate(180)" style="fill:#fff"></rect><rect x="75.63" y="261.56" width="32.71" height="5.02" transform="translate(183.98 528.13) rotate(180)" style="fill:#fff"></rect><rect x="75.63" y="271.3" width="32.71" height="5.02" transform="translate(183.98 547.62) rotate(180)" style="fill:#fff"></rect><rect x="75.63" y="281.04" width="32.71" height="5.02" transform="translate(183.98 567.11) rotate(180)" style="fill:#fff"></rect><rect x="75.63" y="289.76" width="32.71" height="5.02" transform="translate(183.98 584.55) rotate(180)" style="fill:#fff"></rect><rect x="75.63" y="298.49" width="32.71" height="5.02" transform="translate(183.98 601.99) rotate(180)" style="fill:#fff"></rect><rect x="75.63" y="307.21" width="32.71" height="5.02" transform="translate(183.98 619.44) rotate(180)" style="fill:#fff"></rect><rect x="272.78" y="193.75" width="10.4" height="4.85" transform="translate(555.96 392.36) rotate(180)" style="fill:#fff"></rect><rect x="272.78" y="203.16" width="10.4" height="4.85" transform="translate(555.96 411.17) rotate(180)" style="fill:#fff"></rect><rect x="272.78" y="212.57" width="10.4" height="4.85" transform="translate(555.96 429.99) rotate(180)" style="fill:#fff"></rect><rect x="272.78" y="221.98" width="10.4" height="4.85" transform="translate(555.96 448.81) rotate(180)" style="fill:#fff"></rect><rect x="272.78" y="231.39" width="10.4" height="4.85" transform="translate(555.96 467.63) rotate(180)" style="fill:#fff"></rect><rect x="272.78" y="240.8" width="10.4" height="4.85" transform="translate(555.96 486.45) rotate(180)" style="fill:#fff"></rect><rect x="272.78" y="250.21" width="10.4" height="4.85" transform="translate(555.96 505.27) rotate(180)" style="fill:#fff"></rect><rect x="272.78" y="259.62" width="10.4" height="4.85" transform="translate(555.96 524.09) rotate(180)" style="fill:#fff"></rect><rect x="258.62" y="193.75" width="10.4" height="4.85" transform="translate(527.65 392.36) rotate(180)" style="fill:#fff"></rect><rect x="258.62" y="203.16" width="10.4" height="4.85" transform="translate(527.65 411.17) rotate(180)" style="fill:#fff"></rect><rect x="258.62" y="212.57" width="10.4" height="4.85" transform="translate(527.65 429.99) rotate(180)" style="fill:#fff"></rect><rect x="258.62" y="221.98" width="10.4" height="4.85" transform="translate(527.65 448.81) rotate(180)" style="fill:#fff"></rect><rect x="258.62" y="231.39" width="10.4" height="4.85" transform="translate(527.65 467.63) rotate(180)" style="fill:#fff"></rect><rect x="258.62" y="240.8" width="10.4" height="4.85" transform="translate(527.65 486.45) rotate(180)" style="fill:#fff"></rect><rect x="258.62" y="250.21" width="10.4" height="4.85" transform="translate(527.65 505.27) rotate(180)" style="fill:#fff"></rect><rect x="258.62" y="259.62" width="10.4" height="4.85" transform="translate(527.65 524.09) rotate(180)" style="fill:#fff"></rect><rect x="340.46" y="158.84" width="10.84" height="7.65" transform="translate(691.75 325.33) rotate(180)" style="fill:#fff"></rect><rect x="324.3" y="158.84" width="10.84" height="7.65" transform="translate(659.44 325.33) rotate(180)" style="fill:#fff"></rect><rect x="340.46" y="170.08" width="10.84" height="7.65" transform="translate(691.75 347.8) rotate(180)" style="fill:#fff"></rect><rect x="324.3" y="170.08" width="10.84" height="7.65" transform="translate(659.44 347.8) rotate(180)" style="fill:#fff"></rect><rect x="340.46" y="181.31" width="10.84" height="7.65" transform="translate(691.75 370.27) rotate(180)" style="fill:#fff"></rect><rect x="324.3" y="181.31" width="10.84" height="7.65" transform="translate(659.44 370.27) rotate(180)" style="fill:#fff"></rect><rect x="340.46" y="192.55" width="10.84" height="7.65" transform="translate(691.75 392.74) rotate(180)" style="fill:#fff"></rect><rect x="324.3" y="192.55" width="10.84" height="7.65" transform="translate(659.44 392.74) rotate(180)" style="fill:#fff"></rect><rect x="340.46" y="203.78" width="10.84" height="7.65" transform="translate(691.75 415.21) rotate(180)" style="fill:#fff"></rect><rect x="324.3" y="203.78" width="10.84" height="7.65" transform="translate(659.44 415.21) rotate(180)" style="fill:#fff"></rect><rect x="340.46" y="215.02" width="10.84" height="7.65" transform="translate(691.75 437.68) rotate(180)" style="fill:#fff"></rect><rect x="324.3" y="215.02" width="10.84" height="7.65" transform="translate(659.44 437.68) rotate(180)" style="fill:#fff"></rect><rect x="340.46" y="226.25" width="10.84" height="7.65" transform="translate(691.75 460.15) rotate(180)" style="fill:#fff"></rect><rect x="324.3" y="226.25" width="10.84" height="7.65" transform="translate(659.44 460.15) rotate(180)" style="fill:#fff"></rect><rect x="340.46" y="237.49" width="10.84" height="7.65" transform="translate(691.75 482.62) rotate(180)" style="fill:#fff"></rect><rect x="324.3" y="237.49" width="10.84" height="7.65" transform="translate(659.44 482.62) rotate(180)" style="fill:#fff"></rect><rect x="304.28" y="181.31" width="10.84" height="7.65" transform="translate(619.39 370.27) rotate(180)" style="fill:#fff"></rect><rect x="304.28" y="192.55" width="10.84" height="7.65" transform="translate(619.39 392.74) rotate(180)" style="fill:#fff"></rect><rect x="304.28" y="203.78" width="10.84" height="7.65" transform="translate(619.39 415.21) rotate(180)" style="fill:#fff"></rect><rect x="304.28" y="215.02" width="10.84" height="7.65" transform="translate(619.39 437.68) rotate(180)" style="fill:#fff"></rect><rect x="304.28" y="226.25" width="10.84" height="7.65" transform="translate(619.39 460.15) rotate(180)" style="fill:#fff"></rect><rect x="304.28" y="237.49" width="10.84" height="7.65" transform="translate(619.39 482.62) rotate(180)" style="fill:#fff"></rect><rect x="340.46" y="248.59" width="10.84" height="7.65" transform="translate(691.75 504.82) rotate(180)" style="fill:#fff"></rect><rect x="324.3" y="248.59" width="10.84" height="7.65" transform="translate(659.44 504.82) rotate(180)" style="fill:#fff"></rect><rect x="304.28" y="248.59" width="10.84" height="7.65" transform="translate(619.39 504.82) rotate(180)" style="fill:#fff"></rect><rect x="340.46" y="259.69" width="10.84" height="7.65" transform="translate(691.75 527.02) rotate(180)" style="fill:#fff"></rect><rect x="324.3" y="259.69" width="10.84" height="7.65" transform="translate(659.44 527.02) rotate(180)" style="fill:#fff"></rect><rect x="304.28" y="259.69" width="10.84" height="7.65" transform="translate(619.39 527.02) rotate(180)" style="fill:#fff"></rect><rect x="340.46" y="270.79" width="10.84" height="7.65" transform="translate(691.75 549.22) rotate(180)" style="fill:#fff"></rect><rect x="324.3" y="270.79" width="10.84" height="7.65" transform="translate(659.44 549.22) rotate(180)" style="fill:#fff"></rect><rect x="304.28" y="270.79" width="10.84" height="7.65" transform="translate(619.39 549.22) rotate(180)" style="fill:#fff"></rect><rect x="340.46" y="281.89" width="10.84" height="7.65" transform="translate(691.75 571.43) rotate(180)" style="fill:#fff"></rect><rect x="324.3" y="281.89" width="10.84" height="7.65" transform="translate(659.44 571.43) rotate(180)" style="fill:#fff"></rect><rect x="304.28" y="281.89" width="10.84" height="7.65" transform="translate(619.39 571.43) rotate(180)" style="fill:#fff"></rect><rect x="340.46" y="292.99" width="10.84" height="7.65" transform="translate(691.75 593.63) rotate(180)" style="fill:#fff"></rect><rect x="324.3" y="292.99" width="10.84" height="7.65" transform="translate(659.44 593.63) rotate(180)" style="fill:#fff"></rect><rect x="304.28" y="292.99" width="10.84" height="7.65" transform="translate(619.39 593.63) rotate(180)" style="fill:#fff"></rect><rect x="206.39" y="169.76" width="5.85" height="6.7" transform="translate(418.64 346.22) rotate(180)" style="fill:#fff"></rect><rect x="196.25" y="169.76" width="5.85" height="6.7" transform="translate(398.36 346.22) rotate(180)" style="fill:#fff"></rect><rect x="206.39" y="179.84" width="5.85" height="6.7" transform="translate(418.64 366.38) rotate(180)" style="fill:#fff"></rect><rect x="196.25" y="179.84" width="5.85" height="6.7" transform="translate(398.36 366.38) rotate(180)" style="fill:#fff"></rect><rect x="206.39" y="189.92" width="5.85" height="6.7" transform="translate(418.64 386.53) rotate(180)" style="fill:#fff"></rect><rect x="196.25" y="189.92" width="5.85" height="6.7" transform="translate(398.36 386.53) rotate(180)" style="fill:#fff"></rect><rect x="206.39" y="200" width="5.85" height="6.7" transform="translate(418.64 406.69) rotate(180)" style="fill:#fff"></rect><rect x="196.25" y="200" width="5.85" height="6.7" transform="translate(398.36 406.69) rotate(180)" style="fill:#fff"></rect><rect x="206.39" y="210.33" width="5.85" height="6.7" transform="translate(418.64 427.35) rotate(180)" style="fill:#fff"></rect><rect x="196.25" y="210.33" width="5.85" height="6.7" transform="translate(398.36 427.35) rotate(180)" style="fill:#fff"></rect><rect x="206.39" y="220.65" width="5.85" height="6.7" transform="translate(418.64 448.01) rotate(180)" style="fill:#fff"></rect><rect x="196.25" y="220.65" width="5.85" height="6.7" transform="translate(398.36 448.01) rotate(180)" style="fill:#fff"></rect><rect x="206.39" y="230.98" width="5.85" height="6.7" transform="translate(418.64 468.67) rotate(180)" style="fill:#fff"></rect><rect x="196.25" y="230.98" width="5.85" height="6.7" transform="translate(398.36 468.67) rotate(180)" style="fill:#fff"></rect><rect x="206.39" y="241.31" width="5.85" height="6.7" transform="translate(418.64 489.32) rotate(180)" style="fill:#fff"></rect><rect x="196.25" y="241.31" width="5.85" height="6.7" transform="translate(398.36 489.32) rotate(180)" style="fill:#fff"></rect><rect x="206.39" y="251.75" width="5.85" height="6.7" transform="translate(418.64 510.2) rotate(180)" style="fill:#fff"></rect><rect x="196.25" y="251.75" width="5.85" height="6.7" transform="translate(398.36 510.2) rotate(180)" style="fill:#fff"></rect><rect x="206.39" y="262.19" width="5.85" height="6.7" transform="translate(418.64 531.08) rotate(180)" style="fill:#fff"></rect><rect x="196.25" y="262.19" width="5.85" height="6.7" transform="translate(398.36 531.08) rotate(180)" style="fill:#fff"></rect><rect x="206.39" y="272.63" width="5.85" height="6.7" transform="translate(418.64 551.95) rotate(180)" style="fill:#fff"></rect><rect x="196.25" y="272.63" width="5.85" height="6.7" transform="translate(398.36 551.95) rotate(180)" style="fill:#fff"></rect><rect x="206.39" y="283.07" width="5.85" height="6.7" transform="translate(418.64 572.83) rotate(180)" style="fill:#fff"></rect><rect x="196.25" y="283.07" width="5.85" height="6.7" transform="translate(398.36 572.83) rotate(180)" style="fill:#fff"></rect><rect x="63.52" y="170.85" width="5.85" height="7.89" transform="translate(132.88 349.59) rotate(180)" style="fill:#fff"></rect><rect x="53.37" y="170.85" width="5.85" height="7.89" transform="translate(112.6 349.59) rotate(180)" style="fill:#fff"></rect><rect x="63.52" y="182.72" width="5.85" height="7.89" transform="translate(132.88 373.34) rotate(180)" style="fill:#fff"></rect><rect x="53.37" y="182.72" width="5.85" height="7.89" transform="translate(112.6 373.34) rotate(180)" style="fill:#fff"></rect><rect x="63.52" y="194.6" width="5.85" height="7.89" transform="translate(132.88 397.09) rotate(180)" style="fill:#fff"></rect><rect x="53.37" y="194.6" width="5.85" height="7.89" transform="translate(112.6 397.09) rotate(180)" style="fill:#fff"></rect><rect x="63.52" y="206.47" width="5.85" height="7.89" transform="translate(132.88 420.83) rotate(180)" style="fill:#fff"></rect><rect x="53.37" y="206.47" width="5.85" height="7.89" transform="translate(112.6 420.83) rotate(180)" style="fill:#fff"></rect><rect x="63.52" y="218.64" width="5.85" height="7.89" transform="translate(132.88 445.17) rotate(180)" style="fill:#fff"></rect><rect x="53.37" y="218.64" width="5.85" height="7.89" transform="translate(112.6 445.17) rotate(180)" style="fill:#fff"></rect><rect x="63.52" y="230.81" width="5.85" height="7.89" transform="translate(132.88 469.51) rotate(180)" style="fill:#fff"></rect><rect x="53.37" y="230.81" width="5.85" height="7.89" transform="translate(112.6 469.51) rotate(180)" style="fill:#fff"></rect><rect x="63.52" y="242.98" width="5.85" height="7.89" transform="translate(132.88 493.85) rotate(180)" style="fill:#fff"></rect><rect x="53.37" y="242.98" width="5.85" height="7.89" transform="translate(112.6 493.85) rotate(180)" style="fill:#fff"></rect><rect x="63.52" y="255.15" width="5.85" height="7.89" transform="translate(132.88 518.18) rotate(180)" style="fill:#fff"></rect><rect x="53.37" y="255.15" width="5.85" height="7.89" transform="translate(112.6 518.18) rotate(180)" style="fill:#fff"></rect><rect x="63.52" y="267.44" width="5.85" height="7.89" transform="translate(132.88 542.78) rotate(180)" style="fill:#fff"></rect><rect x="53.37" y="267.44" width="5.85" height="7.89" transform="translate(112.6 542.78) rotate(180)" style="fill:#fff"></rect><rect x="63.52" y="279.74" width="5.85" height="7.89" transform="translate(132.88 567.37) rotate(180)" style="fill:#fff"></rect><rect x="53.37" y="279.74" width="5.85" height="7.89" transform="translate(112.6 567.37) rotate(180)" style="fill:#fff"></rect><rect x="63.52" y="292.04" width="5.85" height="7.89" transform="translate(132.88 591.97) rotate(180)" style="fill:#fff"></rect><rect x="53.37" y="292.04" width="5.85" height="7.89" transform="translate(112.6 591.97) rotate(180)" style="fill:#fff"></rect><rect x="63.52" y="304.34" width="5.85" height="7.89" transform="translate(132.88 616.56) rotate(180)" style="fill:#fff"></rect><rect x="53.37" y="304.34" width="5.85" height="7.89" transform="translate(112.6 616.56) rotate(180)" style="fill:#fff"></rect><rect x="184.71" y="169.76" width="5.85" height="6.7" transform="translate(375.26 346.22) rotate(180)" style="fill:#fff"></rect><rect x="174.57" y="169.76" width="5.85" height="6.7" transform="translate(354.98 346.22) rotate(180)" style="fill:#fff"></rect><rect x="184.71" y="159.42" width="5.85" height="6.7" transform="translate(375.26 325.55) rotate(180)" style="fill:#fff"></rect><rect x="174.57" y="159.42" width="5.85" height="6.7" transform="translate(354.98 325.55) rotate(180)" style="fill:#fff"></rect><rect x="184.71" y="149.09" width="5.85" height="6.7" transform="translate(375.26 304.88) rotate(180)" style="fill:#fff"></rect><rect x="174.57" y="149.09" width="5.85" height="6.7" transform="translate(354.98 304.88) rotate(180)" style="fill:#fff"></rect><rect x="184.71" y="179.84" width="5.85" height="6.7" transform="translate(375.26 366.38) rotate(180)" style="fill:#fff"></rect><rect x="174.57" y="179.84" width="5.85" height="6.7" transform="translate(354.98 366.38) rotate(180)" style="fill:#fff"></rect><rect x="184.71" y="189.92" width="5.85" height="6.7" transform="translate(375.26 386.53) rotate(180)" style="fill:#fff"></rect><rect x="174.57" y="189.92" width="5.85" height="6.7" transform="translate(354.98 386.53) rotate(180)" style="fill:#fff"></rect><rect x="184.71" y="200" width="5.85" height="6.7" transform="translate(375.26 406.69) rotate(180)" style="fill:#fff"></rect><rect x="174.57" y="200" width="5.85" height="6.7" transform="translate(354.98 406.69) rotate(180)" style="fill:#fff"></rect><rect x="184.71" y="210.33" width="5.85" height="6.7" transform="translate(375.26 427.35) rotate(180)" style="fill:#fff"></rect><rect x="174.57" y="210.33" width="5.85" height="6.7" transform="translate(354.98 427.35) rotate(180)" style="fill:#fff"></rect><rect x="184.71" y="220.65" width="5.85" height="6.7" transform="translate(375.26 448.01) rotate(180)" style="fill:#fff"></rect><rect x="174.57" y="220.65" width="5.85" height="6.7" transform="translate(354.98 448.01) rotate(180)" style="fill:#fff"></rect><rect x="184.71" y="230.98" width="5.85" height="6.7" transform="translate(375.26 468.67) rotate(180)" style="fill:#fff"></rect><rect x="174.57" y="230.98" width="5.85" height="6.7" transform="translate(354.98 468.67) rotate(180)" style="fill:#fff"></rect><rect x="184.71" y="241.31" width="5.85" height="6.7" transform="translate(375.26 489.32) rotate(180)" style="fill:#fff"></rect><rect x="174.57" y="241.31" width="5.85" height="6.7" transform="translate(354.98 489.32) rotate(180)" style="fill:#fff"></rect><rect x="184.71" y="251.75" width="5.85" height="6.7" transform="translate(375.26 510.2) rotate(180)" style="fill:#fff"></rect><rect x="174.57" y="251.75" width="5.85" height="6.7" transform="translate(354.98 510.2) rotate(180)" style="fill:#fff"></rect><rect x="184.71" y="262.19" width="5.85" height="6.7" transform="translate(375.26 531.08) rotate(180)" style="fill:#fff"></rect><rect x="174.57" y="262.19" width="5.85" height="6.7" transform="translate(354.98 531.08) rotate(180)" style="fill:#fff"></rect><rect x="184.71" y="272.63" width="5.85" height="6.7" transform="translate(375.26 551.95) rotate(180)" style="fill:#fff"></rect><rect x="174.57" y="272.63" width="5.85" height="6.7" transform="translate(354.98 551.95) rotate(180)" style="fill:#fff"></rect><rect x="184.71" y="283.07" width="5.85" height="6.7" transform="translate(375.26 572.83) rotate(180)" style="fill:#fff"></rect><rect x="174.57" y="283.07" width="5.85" height="6.7" transform="translate(354.98 572.83) rotate(180)" style="fill:#fff"></rect><path d="M446.11,145.45H338.44s10.68-29.16,27.11-29.16,21.57,20.13,21.57,20.13,11.09-10.94,20.2-10.94,17,14.45,17,14.45S437.21,132.16,446.11,145.45Z" style="fill:#ebebeb"></path><path d="M385.85,87.78H335.53s11.24-16.29,20.1-16.29,11.48,10.86,11.48,10.86,6.25-5.07,12-4.16S385.85,87.78,385.85,87.78Z" style="fill:#ebebeb"></path><path d="M151.9,117.25h-98s13.42-30,27.78-31.83,21.22,22.26,21.22,22.26,9.26-8.53,16.54-8.53,12.91,11.24,12.91,11.24S146.9,102.69,151.9,117.25Z" style="fill:#ebebeb"></path><path d="M245.05,62.64H178.84s11.37-21.71,23.71-22S221.37,57,221.37,57,240.56,41.64,245.05,62.64Z" style="fill:#ebebeb"></path></g><g id="freepik--Shadow--inject-71"><ellipse cx="250" cy="431.06" rx="206.53" ry="26.94" style="fill:#ebebeb"></ellipse></g><g id="freepik--Floor--inject-71"><rect x="39.76" y="373.57" width="420.47" height="10.58" style="fill:#c7c7c7"></rect><path d="M69.24,373.57a28.18,28.18,0,0,1,0,10.57,28.18,28.18,0,0,1,0-10.57Z" style="fill:#263238"></path><path d="M102.11,373.57a28.18,28.18,0,0,1,0,10.57,28.18,28.18,0,0,1,0-10.57Z" style="fill:#263238"></path><path d="M135,373.57a28.18,28.18,0,0,1,0,10.57,28.18,28.18,0,0,1,0-10.57Z" style="fill:#263238"></path><path d="M167.84,373.57a28.18,28.18,0,0,1,0,10.57,28.18,28.18,0,0,1,0-10.57Z" style="fill:#263238"></path><path d="M200.7,373.57a28.18,28.18,0,0,1,0,10.57,28.18,28.18,0,0,1,0-10.57Z" style="fill:#263238"></path><path d="M233.57,373.57a28.18,28.18,0,0,1,0,10.57,28.18,28.18,0,0,1,0-10.57Z" style="fill:#263238"></path><path d="M266.43,373.57a28.18,28.18,0,0,1,0,10.57,28.18,28.18,0,0,1,0-10.57Z" style="fill:#263238"></path><path d="M299.3,373.57a28.18,28.18,0,0,1,0,10.57,28.18,28.18,0,0,1,0-10.57Z" style="fill:#263238"></path><path d="M332.16,373.57a28.18,28.18,0,0,1,0,10.57,28.18,28.18,0,0,1,0-10.57Z" style="fill:#263238"></path><path d="M365,373.57a28.18,28.18,0,0,1,0,10.57,28.18,28.18,0,0,1,0-10.57Z" style="fill:#263238"></path><path d="M397.89,373.57a28.18,28.18,0,0,1,0,10.57,28.18,28.18,0,0,1,0-10.57Z" style="fill:#263238"></path><path d="M430.76,373.57a28.18,28.18,0,0,1,0,10.57,28.18,28.18,0,0,1,0-10.57Z" style="fill:#263238"></path><path d="M187.7,373.57H107.29s.19-12,8.09-15.14a10.77,10.77,0,0,1,12.61,3s3.22-22,18-22,21.78,19,21.78,19,3.3-5.74,11.48-4.67S187.7,373.57,187.7,373.57Z" style="fill:#37474f"></path><path d="M452.44,373.57s-2.46-11.5-7.38-13.27-7.92,3.39-7.92,3.39-1.16-11-8.14-14.28-12.22,3.44-12.22,3.44-5.36-13.94-14.93-13.94-14.4,20.4-14.4,20.4-5.64-6.08-11.43-2.65-5.79,16.91-5.79,16.91Z" style="fill:#455a64"></path><path d="M121.7,373.57H47.56s2.44-10.45,7.35-11.19,7.21,4.1,7.21,4.1-.22-14.58,9-17.06S88,359.82,88,359.82s5.76-7.35,13.61-6.88,9.83,12.61,9.83,12.61S118.55,361.34,121.7,373.57Z" style="fill:#455a64"></path><path d="M375.54,373.57H330s.1-6.78,4.58-8.58a6.1,6.1,0,0,1,7.14,1.71s1.83-12.47,10.17-12.47S364.22,365,364.22,365a6.41,6.41,0,0,1,6.51-2.65C375.36,363,375.54,373.57,375.54,373.57Z" style="fill:#37474f"></path></g><g id="freepik--character-2--inject-71"><path d="M406.49,401.21s-.07,8.49-.07,8.52c0,7.94-.19,14.9-.61,18.5v0a10.92,10.92,0,0,1-.6,2.46l0,0c-2.36,1.6-65.83,3.25-68.06,2.56s-.45-7.11,2-9.14,26.43-13.52,26.43-13.52l0-8.65Z" style="fill:#fff"></path><path d="M361.61,410.7c4.23-.7,9.37.06,12.52,3.13.12.12-.05.29-.19.24a59.56,59.56,0,0,0-12.32-2.84A.27.27,0,0,1,361.61,410.7Z" style="fill:#263238"></path><path d="M358.54,412.47c4.22-.7,9.36.06,12.51,3.12.12.12-.05.3-.18.25A59.16,59.16,0,0,0,358.54,413,.27.27,0,0,1,358.54,412.47Z" style="fill:#263238"></path><path d="M355.46,414.23c4.22-.69,9.36.06,12.51,3.13.13.12-.05.29-.18.25a59.16,59.16,0,0,0-12.33-2.84A.27.27,0,0,1,355.46,414.23Z" style="fill:#263238"></path><path d="M337.1,433.34c2.24.69,65.69-1,68.07-2.56.91-.59,1.21-9.85,1.25-21v-.35l-40.95.61,0,.69s-24,11.5-26.43,13.53S334.86,432.66,337.1,433.34Z" style="fill:#37474f"></path><path d="M406.42,409.38v.36c0,11.19-.33,20.45-1.25,21.05-1.08.72-14.83,1.46-29.7,2-17.78.63-37.15.94-38.37.57-2.24-.69-.44-7.12,2-9.15s26.43-13.52,26.43-13.52l0-.69,13.66-.2Z" style="fill:#334257"></path><path d="M337.76,430.86c10.69-.54,53.85-1.71,64.46-1.43.09,0,.09.06,0,.07-10.58.76-53.76,1.58-64.46,1.54C337.53,431,337.53,430.87,337.76,430.86Z" style="fill:#263238"></path><path d="M379.12,409.79c-1,6.85-2.52,17-3.65,23-17.78.63-37.15.94-38.37.57-2.24-.69-.44-7.12,2-9.15s26.43-13.52,26.43-13.52l0-.69Z" style="opacity:0.1"></path><path d="M412,410l-47.84.43s-12.77-169.27-1.41-213.62h34.33s9.21,18.83,3.95,40L402.7,313Z" style="fill:#37474f"></path><path d="M408.49,401.92c-1.23-.21-2.54-.2-3.78-.29-1.41-.09-2.81-.19-4.21-.25-2.7-.11-5.4-.16-8.11-.17-5.45,0-10.9,0-16.35.19-3.1.09-6.2.21-9.3.38a.1.1,0,0,0,0,.19c5.4.19,10.81.27,16.22.37s10.81.21,16.21.11c1.55,0,3.09-.05,4.64-.13s3.14,0,4.65-.22C408.56,402.09,408.6,401.94,408.49,401.92Z" style="fill:#263238"></path><path d="M367.5,360.65c-.54-12.36-.93-24.73-1.27-37.1q-1-37.11-.54-74.24c.18-13.89.55-27.77,1-41.65,0-.16-.23-.15-.24,0-1.32,24.85-1.82,49.75-1.84,74.63s.49,49.51,1.71,74.23c.68,13.87,1.53,27.76,2.83,41.59,0,.12.2.12.19,0C368.74,385.62,368,373.14,367.5,360.65Z" style="fill:#263238"></path><path d="M355.93,406.59s-.07,8.5-.07,8.53c0,7.94-.19,14.9-.61,18.49a.13.13,0,0,1,0,.06,10.83,10.83,0,0,1-.59,2.45l0,.05c-2.37,1.6-65.83,3.24-68.06,2.55s-.45-7.1,2-9.13,26.44-13.53,26.44-13.53l-.05-8.65Z" style="fill:#fff"></path><path d="M311.05,416.09c4.23-.7,9.36.06,12.51,3.13.13.11,0,.29-.18.24a59.07,59.07,0,0,0-12.32-2.84A.27.27,0,0,1,311.05,416.09Z" style="fill:#263238"></path><path d="M308,417.85c4.23-.69,9.36.06,12.52,3.13.12.12-.05.29-.19.25A58.92,58.92,0,0,0,308,418.39.27.27,0,0,1,308,417.85Z" style="fill:#263238"></path><path d="M304.89,419.62c4.23-.7,9.37.06,12.52,3.13.12.12-.05.29-.18.24a59.8,59.8,0,0,0-12.33-2.84A.27.27,0,0,1,304.89,419.62Z" style="fill:#263238"></path><path d="M286.54,438.73c2.23.69,65.69-1,68.06-2.56.92-.59,1.22-9.85,1.26-21.05,0-.12,0-.24,0-.35l-41,.6,0,.7s-24,11.49-26.44,13.52S284.3,438.05,286.54,438.73Z" style="fill:#334257"></path><path d="M287.19,436.25c10.69-.54,53.86-1.71,64.47-1.44.08,0,.09.07,0,.07-10.58.77-53.76,1.59-64.46,1.54C287,436.42,287,436.26,287.19,436.25Z" style="fill:#263238"></path><path d="M376.32,240.74S362.22,302,362.59,311c.39,9.3-4.54,104.77-4.54,104.77l-47.7.29s4-97.36,4.78-107.06c1.39-18.13,17.27-67.9,28.63-112.25h51.42s-.45,23.23-11,40C384.17,236.8,379.39,239,376.32,240.74Z" style="fill:#37474f"></path><path d="M392.67,232.54c-3.9,2.18-7.95,4.09-12,6-2,1-4.06,1.9-6.11,2.81-1,.46-2,1-3.06,1.4s-2,.76-2.9,1.22c-.07,0,0,.17,0,.16a21.85,21.85,0,0,0,3.19-.69c1-.28,2-.5,3-.78-1,3.74-1.69,7.6-2.47,11.4-.85,4.15-1.68,8.31-2.52,12.47q-2.52,12.49-5,25c-.82,4.05-1.68,8.1-2.28,12.19a103.19,103.19,0,0,0-.94,12.42c-.21,8.45-.31,16.9-.43,25.35-.14,9.5-.23,19-.1,28.52a.11.11,0,1,0,.22,0c1-16.85,1.35-33.74,1.73-50.61.1-4.17.17-8.35.63-12.5s1.26-8.12,2.09-12.14q2.55-12.41,5.08-24.8,1.43-6.94,2.84-13.9c.48-2.34.94-4.68,1.41-7s.92-4.53,1.19-6.82a52.93,52.93,0,0,0,5.15-2,57.55,57.55,0,0,0,11.51-7.23A.23.23,0,0,0,392.67,232.54Z" style="fill:#263238"></path><path d="M357.23,407c-5.74-.16-11.68-.32-17.41-.18s-11.39.22-17.07.54c-3.22.19-6.43.29-9.64.6a.08.08,0,1,0,0,.16c5.73.32,11.48.26,17.21.21s11.38-.11,17.07-.36c3.22-.14,6.43-.3,9.65-.51C357.39,407.44,357.57,407,357.23,407Z" style="fill:#263238"></path><path d="M347.51,235.54c-1.6,5.32-2.94,10.72-4.37,16.08s-2.88,10.82-4.3,16.23c-2.76,10.47-5.49,21-7.56,31.6a190.33,190.33,0,0,0-3.57,32.37c-.24,11.09,0,22.18.06,33.27s.17,22.28.37,33.43c0,1.38.05,2.77.1,4.15a.11.11,0,0,0,.21,0c.3-11.09.14-22.19.1-33.28s-.18-22.18-.09-33.26a199.58,199.58,0,0,1,2.85-32.84c1.87-10.67,4.5-21.18,7.23-31.66q2.34-9,4.68-17.93c1.56-6,3.23-12,4.61-18.08A.17.17,0,0,0,347.51,235.54Z" style="fill:#263238"></path><path d="M303.62,97.39c-.15,4.61.09,42.5,7.8,50.32s46.6-.25,53.46-2.94,7.39-8.65-1.16-10.13-33.4-3.91-34.29-4.75.4-21.6-.64-25.88S303.69,95.11,303.62,97.39Z" style="fill:#eb9481"></path><path d="M329.83,120.51l-27.24,9.4s4.11,13.3,8.15,18.41,28.38,4.38,48.07-.9,14.87-12.41.87-14.07c-11.05-1.3-28.44-4.14-29-4.32S329.83,120.51,329.83,120.51Z" style="fill:#334257"></path><polygon points="331.05 116.77 331.31 123.99 303.26 134.17 301.11 127.2 331.05 116.77" style="fill:#334257"></polygon><polygon points="331.05 116.77 331.31 123.99 303.26 134.17 301.11 127.2 331.05 116.77" style="opacity:0.1"></polygon><path d="M358.81,147.42c-12,3.21-25.65,4.73-35.46,4.3l39.52-17.87C374.3,136.14,376.92,142.56,358.81,147.42Z" style="fill:#263238"></path><path d="M283.19,116.55c0,17-21.47,26.36-21.47,26.36V90.2S283.19,99.52,283.19,116.55Z" style="fill:#37474f"></path><path d="M266,92.44v48.24a42.61,42.61,0,0,1-4.25,2.24V90.2A42.61,42.61,0,0,1,266,92.44Z" style="fill:#455a64"></path><rect x="282.53" y="95.1" width="69.88" height="42.92" style="fill:#37474f"></rect><path d="M345,130.55l-27.4.24c-9.18.06-18.38.16-27.6.16h-.4v-.4l-.06-28v-.46H290l27.5,0,27.5.14h.27v.27Zm0,0-.27-28,.27.27-27.5.13L290,103l.46-.45-.06,28-.4-.4c9.11,0,18.24.1,27.4.15Z" style="fill:#455a64"></path><rect x="278.58" y="103.61" width="3.95" height="25.89" style="fill:#455a64"></rect><rect x="352.41" y="103.61" width="3.95" height="25.89" style="fill:#455a64"></rect><polygon points="332.08 80.34 336.11 95.1 330.39 95.1 327.7 86.31 299.63 86.31 296.94 95.1 291.22 95.1 295.25 80.34 332.08 80.34" style="fill:#334257"></polygon><rect x="337.26" y="74.39" width="5.06" height="20.71" style="fill:#263238"></rect><rect x="319.18" y="74.39" width="23.14" height="3.1" style="fill:#263238"></rect><rect x="291.22" y="71.11" width="30.01" height="9.64" rx="4.43" style="fill:#a6a6a6"></rect><path d="M336.18,92.75c-4.23-1.65-9.67-6.19-13-6.35a3.88,3.88,0,0,0-3.93,2.43s-1.9-3.22-5-2.86c-1.59.18-2.7,2.88-2.7,2.88s-1.63-2.52-4.36-2c-2.17.38-2.95,3-2.95,3s-2.69-1.68-4.78-.58c-4.22,2.24-2.89,21.12,4.27,23.54,3.34,1.13,2.76-3.46,2.76-3.46s2.43,6.4,6.33,6.23,2.79-6.1,2.79-6.1,2.4,6.19,6.42,5.6c4.19-.62,2.07-6.35,2.07-6.35s3.14,4,6.12,2.84c4.92-1.91-2.63-12.25-1.94-16.47l7.34.06Z" style="fill:#eb9481"></path><path d="M330,89.39c4.15,1.21,8.78-4.14,12.91-3.55,5.58.81.63,7.38-7.27,9.32l-6.33,0Z" style="fill:#eb9481"></path><path d="M304,90.25a.05.05,0,0,0-.1,0,32.87,32.87,0,0,0,2.53,19.36c.1.19.45.12.38-.11A67.06,67.06,0,0,1,304,90.25Z" style="fill:#263238"></path><path d="M311.49,88.76c0-.08-.12-.08-.14,0-1.07,6.51,0,14.68,4.08,20.95.14.22.48.27.34,0C313.38,105.34,311.4,94.87,311.49,88.76Z" style="fill:#263238"></path><path d="M324.52,109.09c-3.67-6.17-5-12.89-5.37-20,0-.1-.13-.08-.15,0-.76,3.52-.06,8,.79,11.48a19,19,0,0,0,4.51,8.64C324.39,109.32,324.6,109.22,324.52,109.09Z" style="fill:#263238"></path><path d="M355.74,142.84c2.71.41,8.89-4.09,11.55-8.15.18-.28,0-3.37-.1-7.15,0-2.29,0-4.85.16-7.17l-14.88,2.4a37.38,37.38,0,0,1,.71,9,4.7,4.7,0,0,1-.18,1,1.31,1.31,0,0,1,0,.15C352.59,138.73,351.5,142.21,355.74,142.84Z" style="fill:#eb9481"></path><path d="M353,132.77a1.31,1.31,0,0,1,0,.15,9.42,9.42,0,0,0,1.49.2c8.71.49,11.8-10.19,12.39-12.67l-14.38,2.32a37.38,37.38,0,0,1,.71,9A5.52,5.52,0,0,1,353,132.77Z" style="fill:#263238"></path><path d="M363.13,128.36h0" style="fill:none;stroke:#f2a49b;stroke-linecap:round;stroke-linejoin:round;stroke-width:0px"></path><path d="M369.17,100.65c1.8,5.12-.3,20.23-3.85,23.73-5.14,5.07-13.88,5.91-18.27-.35-4.26-6.06-1.17-25.7,2.82-28.91C355.75,90.38,366.5,93.08,369.17,100.65Z" style="fill:#eb9481"></path><path d="M346.29,103.21s-1.6,5.61-3.21,11.18l1.94-.11-.63,2.53a5.09,5.09,0,0,0,4.09-.52Z" style="fill:#eb9481"></path><path d="M347.93,109.53s.07.07.06.11c-.22,1-.29,2.19.56,2.69,0,0,0,.06,0,0C347.45,112,347.56,110.45,347.93,109.53Z" style="fill:#263238"></path><path d="M349,108.64c1.65.17,1.19,3.45-.34,3.3S347.64,108.5,349,108.64Z" style="fill:#263238"></path><path d="M350.51,107.55a11.51,11.51,0,0,1-1.21-.63,2.17,2.17,0,0,1-1.12-.87.69.69,0,0,1,.23-.82,1.74,1.74,0,0,1,1.76.06,2.52,2.52,0,0,1,1.31,1.3A.75.75,0,0,1,350.51,107.55Z" style="fill:#263238"></path><path d="M348.16,119.22c-.28.21-.57.5-.94.48a2.7,2.7,0,0,1-1.06-.41s-.07,0-.05,0a1.37,1.37,0,0,0,1.21.73,1.1,1.1,0,0,0,.93-.79A.06.06,0,0,0,348.16,119.22Z" style="fill:#263238"></path><path d="M348.81,116.12a3.44,3.44,0,0,1-3.64.89c-.07,0-.1-.1-.08-.1a6.35,6.35,0,0,0,3.69-.91C348.86,116,348.88,116.05,348.81,116.12Z" style="fill:#263238"></path><path d="M346.56,91.84c-1.83,3.24-.58,9.86,9.55,9.3a9.16,9.16,0,0,0-.46,5,2.47,2.47,0,0,0,1.69,1.85,14.36,14.36,0,0,0-.69,3.94,1.58,1.58,0,0,0,1.5.51s6.63,8.59,9.39,7.89c1.44-3.25,8.09-13.2,5.53-20.15-1.31-3.58-5.86-5.16-5.86-5.16C358.69,86.47,349.49,86.64,346.56,91.84Z" style="fill:#263238"></path><path d="M356.11,101.14a13.94,13.94,0,0,0-.93,4,2.8,2.8,0,0,0,.46,1.82,3.48,3.48,0,0,0,1.7,1,2.51,2.51,0,0,1-2.7-2.85,6.47,6.47,0,0,1,.46-2.11A8,8,0,0,1,356.11,101.14Z" style="fill:#263238"></path><path d="M367.21,95a10.12,10.12,0,0,1,5.46,2.87,6.93,6.93,0,0,1,1.57,2.75,10.13,10.13,0,0,1,.34,3.14,19.13,19.13,0,0,1-1.46,6.07,26.53,26.53,0,0,1-3,5.43,36.68,36.68,0,0,0,2.6-5.58,20.1,20.1,0,0,0,1.31-5.94,9.65,9.65,0,0,0-.27-3,7.13,7.13,0,0,0-1.41-2.61A11,11,0,0,0,367.21,95Z" style="fill:#263238"></path><path d="M358.15,112.41s3.28-4.92,5.51-3.76-.17,8.24-2.73,9.26a2.62,2.62,0,0,1-3.55-1.33Z" style="fill:#eb9481"></path><path d="M362.92,110.66a0,0,0,0,1,0,.07c-1.8.77-2.71,2.48-3.34,4.23a1.45,1.45,0,0,1,2.16-.44c.05,0,0,.1-.05.1a1.59,1.59,0,0,0-1.76.6,7.48,7.48,0,0,0-.82,1.46c-.09.16-.38.08-.32-.11v0C358.72,114.22,360.45,111,362.92,110.66Z" style="fill:#263238"></path><path d="M402.81,215.18c-.14.18-66.34,3.73-67,3.08-.89-.91,5.46-66.78,17.73-79.83,3-3.21,11-10.1,14.15-7.64,12.21,9.64,16,21.08,19.25,28.29,2.37,5.34,5.34,14.48,8.05,23.88C399.5,198.43,403.33,214.53,402.81,215.18Z" style="fill:#334257"></path><path d="M292.52,123.86c-2.23-3.63-2.15-10.24-5.22-9.45-2.73.7-2.34,5.29-2.34,5.29s-2.11-5-4.84-3.44-1.26,6.53-1.26,6.53-2.19-4.52-4.79-2.74-1.52,6.46-1.52,6.46-1.28-.91-2.56,1.18c-1.82,3,1,9.93,3.07,13.43,4.87,8.34,13,14,14.68,15.65l21.76-14.29s-1.25-7.84-2.36-11.74-8.36-15.73-11.42-14.13,2.2,9.87,3,12.17.45,2.89-.74,2.15C297.25,130.44,293.5,125.47,292.52,123.86Z" style="fill:#eb9481"></path><path d="M285.09,119.9c1,6.35,2.54,9,6.71,13.72.09.09,0,.24-.13.15-4.51-4.29-6.91-7.29-6.89-13.84C284.78,119.61,285,119.6,285.09,119.9Z" style="fill:#263238"></path><path d="M278.88,122.51c1.62,6.51,3.26,9.35,7.27,14.66.05.07-.07.18-.13.1-4.36-4.87-6.69-7.91-7.45-14.63C278.53,122.34,278.81,122.21,278.88,122.51Z" style="fill:#263238"></path><path d="M272.62,126.57c2,6.19,3.69,9.38,8.24,14a.12.12,0,1,1-.16.17c-5.1-4.29-7.21-8.26-8.26-14.13C272.37,126.25,272.5,126.18,272.62,126.57Z" style="fill:#263238"></path><path d="M287.74,156.77c3.33,3.19,31.68,28.34,42.64,27.84s31-34.82,33.56-41.72-1.5-11.28-8.31-5.91-25.24,22.22-26.46,22.33-15.79-14.75-19.67-16.83S286.09,155.19,287.74,156.77Z" style="fill:#eb9481"></path><path d="M322.46,152.73l-11.21,26.55s12.63,5.83,19.13,6.24,22.23-18.17,31.47-36.34.71-19.36-9.88-10.05c-8.36,7.34-22.1,18.37-22.61,18.67S322.46,152.73,322.46,152.73Z" style="fill:#334257"></path><path d="M362.4,150.9c.06-.1-.09-.18-.16-.09-2.77,3.87-5.47,7.79-8.33,11.58s-5.72,7.47-8.63,11.16c-.8,1-1.6,2-2.41,3s-1.6,2.22-2.5,3.24c-.07.08.05.19.11.11.79-.9,1.71-1.7,2.52-2.59s1.55-1.73,2.31-2.61c1.55-1.79,3.08-3.61,4.53-5.48,2.43-3.12,4.74-6.35,7-9.61l.67-.61,1.32-1.33a31.65,31.65,0,0,0,2.48-2.82c.07-.09,0-.2-.12-.12-.91.86-1.78,1.77-2.63,2.68-.24.27-.49.53-.74.79.09-.14.19-.27.28-.4C359.61,155.56,361,153.25,362.4,150.9Z" style="fill:#263238"></path><polygon points="319.28 149.21 324.9 153.75 314.18 181.6 307.51 178.66 319.28 149.21" style="fill:#334257"></polygon><polygon points="319.28 149.21 324.9 153.75 314.18 181.6 307.51 178.66 319.28 149.21" style="opacity:0.1"></polygon></g><g id="freepik--character-1--inject-71"><path d="M211,429.71c-2.18.68-65.73-.69-68.05-2.24-.89-.58,4.55-60.77,4.55-60.77l40.31.77-4.58,40.26s23.44,11.11,25.82,13.09S213.15,429,211,429.71Z" style="fill: rgb(221, 106, 87);"></path><path d="M211,429.71c-2.17.68-65.73-.7-68.05-2.25-.28-.17-.36-6.28.65-14.24,11.52,1.93,52.66,8.24,55.86,6.36,2.23-1.31.26-3.36-1.57-4.75,5.25,2.62,10.15,5.14,11.16,6C211.38,422.78,213.15,429,211,429.71Z" style="fill:#263238"></path><path d="M184.33,398.08l-39.57-.56s7.84-94.77,7.52-96.59c-.42-2.33-28.5-112.41-28.5-112.41h37.77S191.33,291.11,192.4,301C194.13,317,184.33,398.08,184.33,398.08Z" style="fill: rgb(221, 106, 87);"></path><path d="M163.51,429.86c-2.18.68-65.73-.7-68-2.25-.89-.57,2.43-60.8,2.43-60.8l39.77.77-1.92,40.3S159.18,419,161.56,421,165.69,429.18,163.51,429.86Z" style="fill: rgb(221, 106, 87);"></path><path d="M163.51,429.86c-2.17.67-65.73-.7-68-2.25-.28-.17-.21-6.13,0-14.25,11.52,1.93,53.3,8.25,56.5,6.37,2.23-1.31.26-3.37-1.57-4.75,5.25,2.62,10.15,5.14,11.16,6C163.92,422.93,165.69,429.19,163.51,429.86Z" style="fill:#263238"></path><path d="M163.86,423.34a6.78,6.78,0,0,0-3.16-3.27c-1.72-1-3.51-1.86-5.28-2.75s-3.61-1.83-5.64-2.73c-.11,0-.18,0-.08.07a53.5,53.5,0,0,1,5,2.85c1.59,1,3.24,1.84,4.87,2.74a8.14,8.14,0,0,1,3.66,3.15,13.4,13.4,0,0,1,1.23,4.85c0,.14.11.14.11,0A13.12,13.12,0,0,0,163.86,423.34Z" style="fill:#455a64"></path><path d="M160.33,188.5s-1.1,18.06-5.42,32.32c-.34,1.18-.72,2.34-1.12,3.45a67.83,67.83,0,0,0-10.95,5.45s-2.72,69.07-2.67,73.36c.17,16.05-3.93,94.21-3.93,94.21l-39.9-.38s4.14-88.39,4.16-94.26c0-9.45,8.37-114.13,8.37-114.13Z" style="fill: rgb(221, 106, 87);"></path><path d="M161.55,188.52H108.87a74.43,74.43,0,0,0-2.82,38L98.7,325.6S134.28,331,156.13,331s37.3-7.2,37.3-7.2.15-16.74-.47-22.9S161.55,188.52,161.55,188.52Z" style="fill:#263238"></path><path d="M162.05,124.8c.61,11.14,1.06,22.6,0,33.71-.85,8.66-4.49,15.79-13.49,17.91-8.34,2-20.23,1.82-27.29-3.71-3.29-2.58-4.43-6.22-4.21-10.3.3-5.67,4.79-36.72,6.14-46.41.8-5.9,1.59-11.88,3.44-17.58,3.89-12,9.8-11.86,10.63-12.1.7-.45,5.25-2.48,11.71-.42a12.64,12.64,0,0,1,7.68,6.84C161.26,102.34,161.46,114.37,162.05,124.8Z" style="fill:#263238"></path><path d="M135.38,88c-7.12,3.32-8.81,11.1-10.54,18.06-2.4,9.69-4.63,19.43-6.39,29.27-.85,4.73-1.59,9.47-2.18,14.24-.58,4.56-1.47,9.43-1.16,14,.51,7.62,7.48,11.08,14.23,12.17a.26.26,0,0,0,.1-.51c-3.85-.76-7.77-1.83-10.64-4.69-3.67-3.66-3.24-8.43-2.81-13.19.74-8.1,1.94-16.14,3.43-24.14s3.26-15.94,5.16-23.86c1.8-7.53,3.12-17.45,10.84-21.27C135.5,88.06,135.46,87.94,135.38,88Z" style="fill:#263238"></path><path d="M159.89,100.87c-1.35-5.82-4.38-11.5-10.51-13.19,0,0,0,0,0,0,7.92,2.53,9.85,11.19,10.91,18.42q1.67,11.41,2.48,22.94c.53,7.38.91,14.82.76,22.22-.15,8-1.6,15.47-6.32,22.05-.1.14.09.3.2.17,4.65-5.32,6.19-12.66,6.56-19.53a206.81,206.81,0,0,0-.8-27.26C162.49,118.14,161.84,109.26,159.89,100.87Z" style="fill:#263238"></path><path d="M147.77,147.45c4.73,10.64,23.23,44.9,34.67,47,7.5,1.35,36.7,0,41.45-5.54,2.5-2.91-1.48-29.05-5.46-28.05s-28,5-31,4.29-26.09-25.53-34.61-31.58C138.16,123.09,145.23,141.72,147.77,147.45Z" style="fill: rgb(221, 106, 87);"></path><path d="M208.3,161.53,211.16,194s-26.22,1.85-34.13-1.12c-12.43-4.67-30.87-42.38-33.38-48.77-4.13-10.49-3-16.84,2.87-15.29,2.27.59,5.26,2.38,8.92,5.61,3.83,3.37,25.83,25.19,32.78,29.32C192.1,166,208.3,161.53,208.3,161.53Z" style="fill:#ebebeb"></path><path d="M202.39,161l1.9,34.37s-21.13.41-27.25-1.71c-12.54-4.34-30.89-43.22-33.39-49.6-3-7.59-3.21-13-.88-14.85a4.14,4.14,0,0,1,3.75-.44c2.27.59,5.26,2.38,8.93,5.61,3.83,3.36,25.73,25.34,32.77,29.32C190.36,164.9,202.39,161,202.39,161Z" style="fill:#334257"></path><path d="M145.65,128.6a.52.52,0,0,1-.31.1.55.55,0,0,1-.39-.16A4.32,4.32,0,0,1,145.65,128.6Zm-.31,8.88a.55.55,0,0,0-.55.55.55.55,0,0,0,.55.54.54.54,0,0,0,.54-.54A.55.55,0,0,0,145.34,137.48Zm7.33,0a.55.55,0,0,0-.54.55.54.54,0,0,0,.54.54.55.55,0,0,0,.55-.54A.55.55,0,0,0,152.67,137.48Zm6.81.7a.54.54,0,0,0,.38.37C159.73,138.42,159.61,138.29,159.48,138.18Zm-17.81-5.62a.53.53,0,0,0-.43.22,3.73,3.73,0,0,0,0,.59h0a.55.55,0,0,0,.47.27.54.54,0,0,0,.54-.54A.55.55,0,0,0,141.67,132.56Zm7.34,0a.55.55,0,0,0-.55.55.55.55,0,0,0,1.09,0A.55.55,0,0,0,149,132.56Zm-3.67,14.79a.51.51,0,0,0-.25.06c.14.31.29.65.45,1a.55.55,0,0,0-.2-1.05Zm7.33,0a.55.55,0,0,0-.54.55.54.54,0,0,0,.54.54.55.55,0,0,0,.55-.54A.55.55,0,0,0,152.67,147.35Zm7.34,0a.55.55,0,0,0-.55.55.55.55,0,0,0,.55.54.54.54,0,0,0,.54-.54A.55.55,0,0,0,160,147.35Zm7.33,0a.55.55,0,0,0-.54.55.54.54,0,0,0,.54.54.55.55,0,0,0,.55-.54A.55.55,0,0,0,167.34,147.35ZM149,142.43a.55.55,0,1,0,.54.55A.54.54,0,0,0,149,142.43Zm7.33,0a.55.55,0,1,0,.54.55A.54.54,0,0,0,156.34,142.43Zm7.34,0a.55.55,0,1,0,.54.55A.54.54,0,0,0,163.68,142.43Zm-11,14.79a.55.55,0,0,0,0,1.09.55.55,0,1,0,0-1.09Zm7.34,0a.55.55,0,1,0,0,1.09.55.55,0,0,0,0-1.09Zm7.33,0a.55.55,0,0,0,0,1.09.55.55,0,1,0,0-1.09Zm7.34,0a.55.55,0,1,0,0,1.09.55.55,0,0,0,0-1.09ZM149,152.3a.55.55,0,1,0,.54.54A.54.54,0,0,0,149,152.3Zm7.33,0a.55.55,0,1,0,.54.54A.54.54,0,0,0,156.34,152.3Zm7.34,0a.55.55,0,1,0,.54.54A.54.54,0,0,0,163.68,152.3Zm7.33,0a.55.55,0,0,0,0,1.09.55.55,0,1,0,0-1.09Zm-11,14.79a.55.55,0,1,0,0,1.09.55.55,0,0,0,0-1.09Zm7.33,0a.55.55,0,0,0,0,1.09.55.55,0,1,0,0-1.09Zm7.34,0a.55.55,0,1,0,0,1.09.55.55,0,0,0,0-1.09Zm7.33,0a.55.55,0,0,0,0,1.09.55.55,0,1,0,0-1.09Zm7.34,0a.55.55,0,1,0,0,1.09.55.55,0,0,0,0-1.09Zm7.33,0a.55.55,0,0,0,0,1.09.55.55,0,1,0,0-1.09Zm-40.34-4.92a.54.54,0,0,0-.54.54.54.54,0,1,0,1.08,0A.54.54,0,0,0,156.34,162.17Zm7.34,0a.54.54,0,0,0-.55.54.55.55,0,1,0,1.09,0A.54.54,0,0,0,163.68,162.17Zm7.33,0a.54.54,0,0,0-.54.54.55.55,0,0,0,.54.55.55.55,0,0,0,.55-.55A.55.55,0,0,0,171,162.17Zm7.34,0a.55.55,0,0,0-.55.54.55.55,0,0,0,.55.55.55.55,0,0,0,.54-.55A.54.54,0,0,0,178.35,162.17Zm7.33,0a.54.54,0,0,0-.54.54.55.55,0,0,0,.54.55.55.55,0,0,0,.55-.55A.55.55,0,0,0,185.68,162.17Zm14.67,0a.54.54,0,0,0-.54.54.55.55,0,0,0,.54.55.55.55,0,0,0,.55-.55A.55.55,0,0,0,200.35,162.17Zm-33,14.79a.54.54,0,0,0-.54.54.55.55,0,0,0,.54.55.55.55,0,0,0,.55-.55A.55.55,0,0,0,167.34,177Zm7.34,0a.55.55,0,0,0-.55.54.55.55,0,0,0,.55.55.55.55,0,0,0,.54-.55A.54.54,0,0,0,174.68,177Zm7.33,0a.54.54,0,0,0-.54.54.55.55,0,0,0,.54.55.55.55,0,0,0,.55-.55A.55.55,0,0,0,182,177Zm7.34,0a.55.55,0,0,0-.55.54.55.55,0,0,0,.55.55.55.55,0,0,0,.54-.55A.54.54,0,0,0,189.35,177Zm7.33,0a.54.54,0,0,0-.54.54.55.55,0,0,0,.54.55.55.55,0,0,0,.55-.55A.55.55,0,0,0,196.68,177Zm-33-4.92a.54.54,0,0,0-.55.54.55.55,0,1,0,1.09,0A.54.54,0,0,0,163.68,172Zm7.33,0a.54.54,0,0,0-.54.54.55.55,0,0,0,.54.55.55.55,0,0,0,.55-.55A.55.55,0,0,0,171,172Zm7.34,0a.55.55,0,0,0-.55.54.55.55,0,0,0,.55.55.55.55,0,0,0,.54-.55A.54.54,0,0,0,178.35,172Zm7.33,0a.54.54,0,0,0-.54.54.55.55,0,0,0,.54.55.55.55,0,0,0,.55-.55A.55.55,0,0,0,185.68,172Zm7.34,0a.55.55,0,0,0-.55.54.55.55,0,0,0,.55.55.55.55,0,0,0,.54-.55A.54.54,0,0,0,193,172Zm7.33,0a.54.54,0,0,0-.54.54.55.55,0,0,0,.54.55.55.55,0,0,0,.55-.55A.55.55,0,0,0,200.35,172Zm-25.67,14.79a.55.55,0,0,0-.55.54.55.55,0,0,0,.55.55.55.55,0,0,0,.54-.55A.54.54,0,0,0,174.68,186.83Zm7.33,0a.54.54,0,0,0-.54.54.55.55,0,0,0,.54.55.55.55,0,0,0,.55-.55A.55.55,0,0,0,182,186.83Zm7.34,0a.55.55,0,0,0-.55.54.55.55,0,0,0,.55.55.55.55,0,0,0,.54-.55A.54.54,0,0,0,189.35,186.83Zm7.33,0a.54.54,0,0,0-.54.54.55.55,0,0,0,.54.55.55.55,0,0,0,.55-.55A.55.55,0,0,0,196.68,186.83Zm7.14,0a.54.54,0,0,0-.35.5.56.56,0,0,0,.41.53Zm-32.81-5a.54.54,0,0,0-.54.54.55.55,0,0,0,.54.55.55.55,0,0,0,.55-.55A.55.55,0,0,0,171,181.91Zm7.34,0a.55.55,0,0,0-.55.54.55.55,0,0,0,.55.55.55.55,0,0,0,.54-.55A.54.54,0,0,0,178.35,181.91Zm7.33,0a.54.54,0,0,0-.54.54.55.55,0,0,0,.54.55.55.55,0,0,0,.55-.55A.55.55,0,0,0,185.68,181.91Zm7.34,0a.55.55,0,0,0-.55.54.55.55,0,0,0,.55.55.55.55,0,0,0,.54-.55A.54.54,0,0,0,193,181.91Zm7.33,0a.54.54,0,0,0-.54.54.55.55,0,0,0,.54.55.55.55,0,0,0,.55-.55A.55.55,0,0,0,200.35,181.91Zm-22,9.87a.55.55,0,0,0-.55.54.55.55,0,0,0,.55.55.55.55,0,0,0,.54-.55A.54.54,0,0,0,178.35,191.78Zm7.33,0a.54.54,0,0,0-.54.54.55.55,0,0,0,.54.55.55.55,0,0,0,.55-.55A.55.55,0,0,0,185.68,191.78Zm7.34,0a.55.55,0,0,0-.55.54.55.55,0,0,0,.55.55.55.55,0,0,0,.54-.55A.54.54,0,0,0,193,191.78Zm7.33,0a.54.54,0,0,0-.54.54.55.55,0,0,0,.54.55.55.55,0,0,0,.55-.55A.55.55,0,0,0,200.35,191.78Z" style="fill:#fff"></path><path d="M197.93,193.49c-.41-4.79-1.36-24.45-1.28-28.71,0-.3.19-.36.22-.05,1.57,14.32,1.09,24,1.24,28.74A.09.09,0,0,1,197.93,193.49Z" style="fill:#263238"></path><polygon points="206.46 199.82 172.07 199.74 188.24 155.66 222.63 155.74 206.46 199.82" style="fill:#ebebeb"></polygon><polygon points="208.82 199.83 174.42 199.75 190.59 155.66 224.98 155.75 208.82 199.83" style="fill:#a6a6a6"></polygon><path d="M194.24,155.68a3.05,3.05,0,0,1-1.47,1.79c-.33.17-.42-.26-.09-.42a2.28,2.28,0,0,0,1-1.13c0-.08.06-.17.08-.25a1.73,1.73,0,0,0,.05-.84.54.54,0,0,0-.19-.3s0,0,0,0l0,0h-.06a.4.4,0,0,0-.24,0,1.07,1.07,0,0,0-.4.25,2.37,2.37,0,0,0-.34.46,2.2,2.2,0,0,0-.15.26l0,.05a.36.36,0,0,0,0,.09s0,0,0,.06h-.49a3.77,3.77,0,0,1,.47-.85,1.88,1.88,0,0,1,1.32-.84.76.76,0,0,1,.77.71A1.92,1.92,0,0,1,194.24,155.68Z" style="fill:#263238"></path><path d="M196.94,155.68a3,3,0,0,1-1.48,1.79c-.33.18-.42-.25-.09-.42a2.28,2.28,0,0,0,1-1.13,1.69,1.69,0,0,0,.08-.24,1.63,1.63,0,0,0,.05-.84.51.51,0,0,0-.19-.3l0,0,0,0h-.07a.4.4,0,0,0-.24,0,1,1,0,0,0-.4.25,2.1,2.1,0,0,0-.34.46,2.07,2.07,0,0,0-.15.25l0,.06-.05.09s0,0,0,.06h-.48a3.21,3.21,0,0,1,.46-.85,1.88,1.88,0,0,1,1.33-.84.74.74,0,0,1,.76.71A2,2,0,0,1,196.94,155.68Z" style="fill:#263238"></path><path d="M199.63,155.69a3.07,3.07,0,0,1-1.48,1.79c-.33.18-.42-.25-.09-.42a2.28,2.28,0,0,0,1-1.13,2.25,2.25,0,0,0,.08-.24,1.53,1.53,0,0,0,.05-.84.53.53,0,0,0-.19-.31l0,0h-.11a.49.49,0,0,0-.24,0,1,1,0,0,0-.39.26,1.93,1.93,0,0,0-.35.46,1.5,1.5,0,0,0-.15.25l0,.06a.59.59,0,0,0,0,.08s0,0,0,.06h-.49a3.94,3.94,0,0,1,.46-.85A1.92,1.92,0,0,1,199,154a.76.76,0,0,1,.77.7A2.14,2.14,0,0,1,199.63,155.69Z" style="fill:#263238"></path><path d="M202.32,155.69a3.06,3.06,0,0,1-1.48,1.8c-.33.17-.41-.26-.09-.42a2.32,2.32,0,0,0,1-1.13,2.41,2.41,0,0,0,.08-.25,1.63,1.63,0,0,0,.06-.84.61.61,0,0,0-.2-.3l0,0,0,0h-.07a.4.4,0,0,0-.24,0,1,1,0,0,0-.39.25,2.44,2.44,0,0,0-.35.46l-.15.25,0,.06a.36.36,0,0,0,0,.09s0,0,0,.06h-.49a3.42,3.42,0,0,1,.47-.85,1.86,1.86,0,0,1,1.32-.84.77.77,0,0,1,.77.71A2,2,0,0,1,202.32,155.69Z" style="fill:#263238"></path><path d="M205,155.7a3,3,0,0,1-1.48,1.79c-.32.18-.41-.25-.09-.42a2.23,2.23,0,0,0,1-1.13,1.69,1.69,0,0,0,.08-.24,1.64,1.64,0,0,0,.06-.84.56.56,0,0,0-.19-.3l0,0,0,0h-.06a.4.4,0,0,0-.24,0,.9.9,0,0,0-.4.25,1.82,1.82,0,0,0-.34.46c-.06.08-.1.16-.16.25l0,.06a.36.36,0,0,0,0,.09.14.14,0,0,0,0,.06h-.49a3.25,3.25,0,0,1,.47-.85,1.88,1.88,0,0,1,1.32-.84.76.76,0,0,1,.77.71A2,2,0,0,1,205,155.7Z" style="fill:#263238"></path><path d="M207.7,155.71a3.05,3.05,0,0,1-1.47,1.79c-.33.18-.42-.25-.1-.42a2.25,2.25,0,0,0,1-1.13c0-.08.06-.17.08-.24a1.75,1.75,0,0,0,.05-.84.53.53,0,0,0-.19-.31s0,0,0,0l-.05,0H207a.5.5,0,0,0-.24,0,1,1,0,0,0-.4.26,2.05,2.05,0,0,0-.34.45,2.2,2.2,0,0,0-.15.26l0,.06,0,.08s0,0,0,.06h-.49a4,4,0,0,1,.47-.85A1.9,1.9,0,0,1,207,154a.75.75,0,0,1,.77.7A1.91,1.91,0,0,1,207.7,155.71Z" style="fill:#263238"></path><path d="M210.4,155.71a3.06,3.06,0,0,1-1.48,1.8c-.33.17-.42-.26-.09-.42a2.32,2.32,0,0,0,1-1.13,2.41,2.41,0,0,0,.08-.25,1.62,1.62,0,0,0,.05-.84.54.54,0,0,0-.19-.3l0,0,0,0h-.07a.4.4,0,0,0-.24,0,1.07,1.07,0,0,0-.4.25,2.37,2.37,0,0,0-.34.46c-.06.08-.1.17-.15.25l0,.06-.05.09s0,0,0,.06h-.48a3.37,3.37,0,0,1,.46-.85,1.88,1.88,0,0,1,1.33-.84.76.76,0,0,1,.76.71A2,2,0,0,1,210.4,155.71Z" style="fill:#263238"></path><path d="M213.09,155.72a3,3,0,0,1-1.48,1.79c-.33.18-.42-.25-.09-.42a2.28,2.28,0,0,0,1-1.13,1.69,1.69,0,0,0,.08-.24,1.53,1.53,0,0,0,.05-.84.51.51,0,0,0-.19-.3l0,0s0,0,0,0h-.07a.4.4,0,0,0-.24,0,.93.93,0,0,0-.39.25,2.15,2.15,0,0,0-.35.46,2.07,2.07,0,0,0-.15.25l0,.06a.36.36,0,0,0,0,.09s0,0,0,.06h-.49a3.66,3.66,0,0,1,.46-.84,1.9,1.9,0,0,1,1.33-.84.76.76,0,0,1,.77.7A2.14,2.14,0,0,1,213.09,155.72Z" style="fill:#263238"></path><path d="M215.78,155.73a3.07,3.07,0,0,1-1.48,1.79c-.33.18-.41-.25-.09-.42a2.28,2.28,0,0,0,1-1.13c0-.08.06-.17.08-.24a1.64,1.64,0,0,0,.06-.84.6.6,0,0,0-.2-.31l0,0,0,0H215a.4.4,0,0,0-.24,0,1,1,0,0,0-.39.26,2.1,2.1,0,0,0-.35.45l-.15.26,0,.06a.3.3,0,0,0,0,.08s0,0,0,.06h-.49a3.6,3.6,0,0,1,.47-.85,1.82,1.82,0,0,1,1.32-.83.76.76,0,0,1,.77.7A2,2,0,0,1,215.78,155.73Z" style="fill:#263238"></path><path d="M218.47,155.73a3,3,0,0,1-1.48,1.8c-.32.17-.41-.26-.09-.42a2.27,2.27,0,0,0,1-1.13,2.41,2.41,0,0,0,.08-.25,1.63,1.63,0,0,0,.06-.84.6.6,0,0,0-.19-.3l0,0,0,0h-.06a.4.4,0,0,0-.24,0,1,1,0,0,0-.4.25,2,2,0,0,0-.34.46c-.06.08-.1.17-.16.25l0,.06a.36.36,0,0,0,0,.09.14.14,0,0,0,0,.06H216a3.42,3.42,0,0,1,.47-.85,1.88,1.88,0,0,1,1.32-.84.77.77,0,0,1,.77.71A2,2,0,0,1,218.47,155.73Z" style="fill:#263238"></path><path d="M221.16,155.74a3.05,3.05,0,0,1-1.47,1.79c-.33.18-.42-.25-.1-.42a2.25,2.25,0,0,0,1-1.13c0-.07.06-.16.08-.24a1.74,1.74,0,0,0,0-.84.48.48,0,0,0-.19-.3l0,0-.05,0h-.06a.4.4,0,0,0-.24,0,1,1,0,0,0-.4.25,2.1,2.1,0,0,0-.34.46,2.07,2.07,0,0,0-.15.25l0,.06a.36.36,0,0,0,0,.09s0,0,0,.06h-.49a3.71,3.71,0,0,1,.47-.84,1.88,1.88,0,0,1,1.32-.84.75.75,0,0,1,.77.7A1.91,1.91,0,0,1,221.16,155.74Z" style="fill:#263238"></path><path d="M223.86,155.75a3.07,3.07,0,0,1-1.48,1.79c-.33.17-.42-.25-.09-.42a2.28,2.28,0,0,0,1-1.13l.08-.24a1.63,1.63,0,0,0,0-.84.53.53,0,0,0-.19-.31l0,0,0,0h-.07a.4.4,0,0,0-.24,0,1,1,0,0,0-.4.26,2.05,2.05,0,0,0-.34.45,2.2,2.2,0,0,0-.15.26l0,.06,0,.08s0,0,0,.06h-.48a3.55,3.55,0,0,1,.46-.85,1.83,1.83,0,0,1,1.33-.83.74.74,0,0,1,.76.7A2,2,0,0,1,223.86,155.75Z" style="fill:#263238"></path><path d="M222.67,163.18c1.56,4.27,6,9.8,6.05,13.18a3.88,3.88,0,0,1-2.52,3.87s3.17,2,2.74,5.05c-.22,1.58-2.94,2.62-2.94,2.62s2.48,1.7,1.93,4.41c-.44,2.16-3.1,2.88-3.1,2.88s1.62,2.73.47,4.79c-2.34,4.18-21.18,2.4-23.44-4.81-1.05-3.37,3.53-2.68,3.53-2.68s-6.35-2.58-6.08-6.47,6.16-2.65,6.16-2.65-6.13-2.54-5.45-6.55c.71-4.18,6.4-1.92,6.4-1.92s-3.93-3.24-2.7-6.19c2-4.87,9.37,2.19,13.6,1.6l2.93-6.62Z" style="fill: rgb(221, 106, 87);"></path><path d="M225.89,169.47c-1.12-4.17,4.34-8.68,3.84-12.82-.67-5.6-7.36-.8-9.48,7l-.58,6.38Z" style="fill: rgb(221, 106, 87);"></path><path d="M224.43,195.36c.06,0,.07.09,0,.1a32.78,32.78,0,0,1-19.31-3c-.19-.1-.11-.45.12-.38A66.86,66.86,0,0,0,224.43,195.36Z" style="fill:#263238"></path><path d="M226.09,188c.07,0,.07.12,0,.14-6.53.92-14.67-.35-20.85-4.57-.21-.14-.26-.48,0-.34C209.55,185.68,220,187.9,226.09,188Z" style="fill:#263238"></path><path d="M206.06,174.45c6.08,3.82,12.78,5.3,19.87,5.83.09,0,.07.14,0,.15-3.54.69-8-.12-11.46-1.05a18.94,18.94,0,0,1-8.53-4.72C205.83,174.57,205.93,174.37,206.06,174.45Z" style="fill:#263238"></path><polygon points="109.83 181.47 104.13 205.72 154.68 209.26 157.52 202.57 162.21 208.76 168.53 206.78 164.44 182.25 109.83 181.47" style="fill:#ebebeb"></polygon><path d="M164.57,175l4,26.3s-51.61-.27-64.4-1.43c0,0,11.64-53.53,25.71-68.21,7-7.34,15.12-6.62,20.17-1.28,1.28,1.35,16.42,22.23,17.91,30.12C169.21,167.41,164.57,175,164.57,175Z" style="fill:#334257"></path><path d="M168.53,201.25s-51.61-.27-64.4-1.43A374.93,374.93,0,0,1,116,158.31c.12-.32.23-.64.35-.95,3.93-10.7,8.56-20.61,13.49-25.75,7-7.34,15.12-6.62,20.17-1.28,1.14,1.2,13.22,17.83,17,27l.35.93a14.26,14.26,0,0,1,.61,2.14,16.86,16.86,0,0,1-.27,6.73l-.24,1a28.71,28.71,0,0,1-2.84,6.78Z" style="fill:#334257"></path><path d="M138.55,128.16a.55.55,0,0,1-.55.54.54.54,0,0,1-.54-.54.55.55,0,0,1,.54-.55A.55.55,0,0,1,138.55,128.16Zm6.79-.55a.55.55,0,0,0-.55.55.55.55,0,0,0,.55.54.54.54,0,0,0,.54-.54A.55.55,0,0,0,145.34,127.61Zm-14.67,9.87a.55.55,0,0,0-.55.55.55.55,0,0,0,.55.54.54.54,0,0,0,.54-.54A.55.55,0,0,0,130.67,137.48Zm7.33,0a.55.55,0,0,0-.54.55.54.54,0,0,0,.54.54.55.55,0,0,0,.55-.54A.55.55,0,0,0,138,137.48Zm7.34,0a.55.55,0,0,0-.55.55.55.55,0,0,0,.55.54.54.54,0,0,0,.54-.54A.55.55,0,0,0,145.34,137.48Zm7.33,0a.55.55,0,0,0-.54.55.54.54,0,0,0,.54.54.55.55,0,0,0,.55-.54A.55.55,0,0,0,152.67,137.48Zm-18.34-4.92a.55.55,0,0,0-.54.55.55.55,0,0,0,1.09,0A.55.55,0,0,0,134.33,132.56Zm7.34,0a.55.55,0,0,0-.54.55.54.54,0,0,0,1.08,0A.55.55,0,0,0,141.67,132.56Zm7.34,0a.55.55,0,0,0-.55.55.55.55,0,0,0,1.09,0A.55.55,0,0,0,149,132.56Zm-25.68,14.79a.55.55,0,0,0-.54.55.54.54,0,0,0,.54.54.55.55,0,0,0,.55-.54A.55.55,0,0,0,123.33,147.35Zm7.34,0a.55.55,0,0,0-.55.55.55.55,0,0,0,.55.54.54.54,0,0,0,.54-.54A.55.55,0,0,0,130.67,147.35Zm7.33,0a.55.55,0,0,0-.54.55.54.54,0,0,0,.54.54.55.55,0,0,0,.55-.54A.55.55,0,0,0,138,147.35Zm7.34,0a.55.55,0,0,0-.55.55.55.55,0,0,0,.55.54.54.54,0,0,0,.54-.54A.55.55,0,0,0,145.34,147.35Zm7.33,0a.55.55,0,0,0-.54.55.54.54,0,0,0,.54.54.55.55,0,0,0,.55-.54A.55.55,0,0,0,152.67,147.35Zm7.34,0a.55.55,0,0,0-.55.55.55.55,0,0,0,.55.54.54.54,0,0,0,.54-.54A.55.55,0,0,0,160,147.35Zm-33-4.92a.55.55,0,1,0,.54.55A.54.54,0,0,0,127,142.43Zm7.33,0a.55.55,0,1,0,.55.55A.54.54,0,0,0,134.33,142.43Zm7.34,0a.55.55,0,1,0,.54.55A.54.54,0,0,0,141.67,142.43Zm7.34,0a.55.55,0,1,0,.54.55A.54.54,0,0,0,149,142.43Zm7.33,0a.55.55,0,1,0,.54.55A.54.54,0,0,0,156.34,142.43Zm-40,14.93c-.12.31-.23.63-.35.95a.54.54,0,0,0,.54-.54A.5.5,0,0,0,116.35,157.36Zm7-.14a.55.55,0,0,0,0,1.09.55.55,0,1,0,0-1.09Zm7.34,0a.55.55,0,1,0,0,1.09.55.55,0,0,0,0-1.09Zm7.33,0a.55.55,0,0,0,0,1.09.55.55,0,1,0,0-1.09Zm7.34,0a.55.55,0,1,0,0,1.09.55.55,0,0,0,0-1.09Zm7.33,0a.55.55,0,0,0,0,1.09.55.55,0,1,0,0-1.09Zm7.34,0a.55.55,0,1,0,0,1.09.55.55,0,0,0,0-1.09Zm7,.16a.55.55,0,0,0-.16.39.54.54,0,0,0,.51.54Zm-47.3-5.08a.55.55,0,1,0,.55.54A.54.54,0,0,0,119.66,152.3Zm7.34,0a.55.55,0,1,0,.54.54A.54.54,0,0,0,127,152.3Zm7.33,0a.55.55,0,1,0,.55.54A.54.54,0,0,0,134.33,152.3Zm7.34,0a.55.55,0,1,0,.54.54A.54.54,0,0,0,141.67,152.3Zm7.34,0a.55.55,0,1,0,.54.54A.54.54,0,0,0,149,152.3Zm7.33,0a.55.55,0,1,0,.54.54A.54.54,0,0,0,156.34,152.3Zm7.34,0a.55.55,0,1,0,.54.54A.54.54,0,0,0,163.68,152.3ZM116,167.09a.55.55,0,1,0,0,1.09.55.55,0,0,0,0-1.09Zm7.33,0a.55.55,0,0,0,0,1.09.55.55,0,1,0,0-1.09Zm7.34,0a.55.55,0,1,0,0,1.09.55.55,0,0,0,0-1.09Zm7.33,0a.55.55,0,0,0,0,1.09.55.55,0,1,0,0-1.09Zm7.34,0a.55.55,0,1,0,0,1.09.55.55,0,0,0,0-1.09Zm7.33,0a.55.55,0,0,0,0,1.09.55.55,0,1,0,0-1.09Zm7.34,0a.55.55,0,1,0,0,1.09.55.55,0,0,0,0-1.09Zm7.33,0a.55.55,0,0,0,0,1.09h.07l.24-1A.56.56,0,0,0,167.34,167.09Zm-47.68-4.92a.54.54,0,0,0-.54.54.55.55,0,1,0,1.09,0A.54.54,0,0,0,119.66,162.17Zm7.34,0a.54.54,0,0,0-.54.54.54.54,0,1,0,1.08,0A.54.54,0,0,0,127,162.17Zm7.33,0a.54.54,0,0,0-.54.54.55.55,0,1,0,1.09,0A.54.54,0,0,0,134.33,162.17Zm7.34,0a.54.54,0,0,0-.54.54.54.54,0,1,0,1.08,0A.54.54,0,0,0,141.67,162.17Zm7.34,0a.54.54,0,0,0-.55.54.55.55,0,1,0,1.09,0A.54.54,0,0,0,149,162.17Zm7.33,0a.54.54,0,0,0-.54.54.54.54,0,1,0,1.08,0A.54.54,0,0,0,156.34,162.17Zm7.34,0a.54.54,0,0,0-.55.54.55.55,0,1,0,1.09,0A.54.54,0,0,0,163.68,162.17ZM116,177a.55.55,0,0,0-.55.54.55.55,0,0,0,.55.55.55.55,0,0,0,.54-.55A.54.54,0,0,0,116,177Zm7.33,0a.54.54,0,0,0-.54.54.55.55,0,0,0,.54.55.55.55,0,0,0,.55-.55A.55.55,0,0,0,123.33,177Zm7.34,0a.55.55,0,0,0-.55.54.55.55,0,0,0,.55.55.55.55,0,0,0,.54-.55A.54.54,0,0,0,130.67,177Zm7.33,0a.54.54,0,0,0-.54.54.55.55,0,0,0,.54.55.55.55,0,0,0,.55-.55A.55.55,0,0,0,138,177Zm7.34,0a.55.55,0,0,0-.55.54.55.55,0,0,0,.55.55.55.55,0,0,0,.54-.55A.54.54,0,0,0,145.34,177Zm7.33,0a.54.54,0,0,0-.54.54.55.55,0,0,0,.54.55.55.55,0,0,0,.55-.55A.55.55,0,0,0,152.67,177Zm7.34,0a.55.55,0,0,0-.55.54.55.55,0,0,0,.55.55.55.55,0,0,0,.54-.55A.54.54,0,0,0,160,177ZM112.33,172a.55.55,0,0,0-.55.54.55.55,0,0,0,.55.55.55.55,0,0,0,.54-.55A.54.54,0,0,0,112.33,172Zm7.33,0a.54.54,0,0,0-.54.54.55.55,0,1,0,1.09,0A.54.54,0,0,0,119.66,172Zm7.34,0a.54.54,0,0,0-.54.54.54.54,0,1,0,1.08,0A.54.54,0,0,0,127,172Zm7.33,0a.54.54,0,0,0-.54.54.55.55,0,1,0,1.09,0A.54.54,0,0,0,134.33,172Zm7.34,0a.54.54,0,0,0-.54.54.54.54,0,1,0,1.08,0A.54.54,0,0,0,141.67,172Zm7.34,0a.54.54,0,0,0-.55.54.55.55,0,1,0,1.09,0A.54.54,0,0,0,149,172Zm7.33,0a.54.54,0,0,0-.54.54.54.54,0,1,0,1.08,0A.54.54,0,0,0,156.34,172Zm7.34,0a.54.54,0,0,0-.55.54.55.55,0,1,0,1.09,0A.54.54,0,0,0,163.68,172Zm-55,14.79a.54.54,0,0,0-.54.54.55.55,0,0,0,.54.55.55.55,0,0,0,.55-.55A.55.55,0,0,0,108.66,186.83Zm7.34,0a.55.55,0,0,0-.55.54.55.55,0,0,0,.55.55.55.55,0,0,0,.54-.55A.54.54,0,0,0,116,186.83Zm7.33,0a.54.54,0,0,0-.54.54.55.55,0,0,0,.54.55.55.55,0,0,0,.55-.55A.55.55,0,0,0,123.33,186.83Zm7.34,0a.55.55,0,0,0-.55.54.55.55,0,0,0,.55.55.55.55,0,0,0,.54-.55A.54.54,0,0,0,130.67,186.83Zm7.33,0a.54.54,0,0,0-.54.54.55.55,0,0,0,.54.55.55.55,0,0,0,.55-.55A.55.55,0,0,0,138,186.83Zm7.34,0a.55.55,0,0,0-.55.54.55.55,0,0,0,.55.55.55.55,0,0,0,.54-.55A.54.54,0,0,0,145.34,186.83Zm7.33,0a.54.54,0,0,0-.54.54.55.55,0,0,0,.54.55.55.55,0,0,0,.55-.55A.55.55,0,0,0,152.67,186.83Zm7.34,0a.55.55,0,0,0-.55.54.55.55,0,0,0,.55.55.55.55,0,0,0,.54-.55A.54.54,0,0,0,160,186.83Zm-47.68-4.92a.55.55,0,0,0-.55.54.55.55,0,0,0,.55.55.55.55,0,0,0,.54-.55A.54.54,0,0,0,112.33,181.91Zm7.33,0a.54.54,0,0,0-.54.54.55.55,0,1,0,1.09,0A.54.54,0,0,0,119.66,181.91Zm7.34,0a.54.54,0,0,0-.54.54.54.54,0,1,0,1.08,0A.54.54,0,0,0,127,181.91Zm7.33,0a.54.54,0,0,0-.54.54.55.55,0,1,0,1.09,0A.54.54,0,0,0,134.33,181.91Zm7.34,0a.54.54,0,0,0-.54.54.54.54,0,1,0,1.08,0A.54.54,0,0,0,141.67,181.91Zm7.34,0a.54.54,0,0,0-.55.54.55.55,0,1,0,1.09,0A.54.54,0,0,0,149,181.91Zm7.33,0a.54.54,0,0,0-.54.54.54.54,0,1,0,1.08,0A.54.54,0,0,0,156.34,181.91Zm7.34,0a.54.54,0,0,0-.55.54.55.55,0,1,0,1.09,0A.54.54,0,0,0,163.68,181.91Zm-55,14.79a.54.54,0,0,0-.54.54.55.55,0,0,0,.54.55.55.55,0,0,0,.55-.55A.55.55,0,0,0,108.66,196.7Zm7.34,0a.55.55,0,0,0-.55.54.55.55,0,0,0,.55.55.55.55,0,0,0,.54-.55A.54.54,0,0,0,116,196.7Zm7.33,0a.54.54,0,0,0-.54.54.55.55,0,0,0,.54.55.55.55,0,0,0,.55-.55A.55.55,0,0,0,123.33,196.7Zm7.34,0a.55.55,0,0,0-.55.54.55.55,0,0,0,.55.55.55.55,0,0,0,.54-.55A.54.54,0,0,0,130.67,196.7Zm7.33,0a.54.54,0,0,0-.54.54.55.55,0,0,0,.54.55.55.55,0,0,0,.55-.55A.55.55,0,0,0,138,196.7Zm7.34,0a.55.55,0,0,0-.55.54.55.55,0,0,0,.55.55.55.55,0,0,0,.54-.55A.54.54,0,0,0,145.34,196.7Zm7.33,0a.54.54,0,0,0-.54.54.55.55,0,0,0,.54.55.55.55,0,0,0,.55-.55A.55.55,0,0,0,152.67,196.7Zm7.34,0a.55.55,0,0,0-.55.54.55.55,0,0,0,.55.55.55.55,0,0,0,.54-.55A.54.54,0,0,0,160,196.7Zm7.33,0a.54.54,0,0,0-.54.54.55.55,0,0,0,.54.55.55.55,0,0,0,.55-.55A.55.55,0,0,0,167.34,196.7Zm-55-4.92a.55.55,0,0,0-.55.54.55.55,0,0,0,.55.55.55.55,0,0,0,.54-.55A.54.54,0,0,0,112.33,191.78Zm7.33,0a.54.54,0,0,0-.54.54.55.55,0,1,0,1.09,0A.54.54,0,0,0,119.66,191.78Zm7.34,0a.54.54,0,0,0-.54.54.54.54,0,1,0,1.08,0A.54.54,0,0,0,127,191.78Zm7.33,0a.54.54,0,0,0-.54.54.55.55,0,1,0,1.09,0A.54.54,0,0,0,134.33,191.78Zm7.34,0a.54.54,0,0,0-.54.54.54.54,0,1,0,1.08,0A.54.54,0,0,0,141.67,191.78Zm7.34,0a.54.54,0,0,0-.55.54.55.55,0,1,0,1.09,0A.54.54,0,0,0,149,191.78Zm7.33,0a.54.54,0,0,0-.54.54.54.54,0,1,0,1.08,0A.54.54,0,0,0,156.34,191.78Zm7.34,0a.54.54,0,0,0-.55.54.55.55,0,1,0,1.09,0A.54.54,0,0,0,163.68,191.78Z" style="fill:#fff"></path><path d="M167.75,159.07a27.18,27.18,0,0,0-2.61-5.89c-.79-1.41-1.61-2.8-2.44-4.18-.26-.48-.47-1-.7-1.47s-.42-.83-.63-1.25c-.45-.92-.92-1.81-1.4-2.71,0,0-.1,0-.08,0,.36.91.74,1.8,1.17,2.68-1.23-2-2.44-4-3.76-6a0,0,0,0,0-.06,0c2.67,5,5.72,9.73,8.17,14.82a19.9,19.9,0,0,1,2.1,7.64c.27,5.36-2.14,9.79-3,12.13,0,.11.1.19.15.09C165.52,173.12,170.05,167.18,167.75,159.07Z" style="fill:#263238"></path><path d="M135.35,128.35c.27,1,5.3,7.45,9.93,7.1,1.51-.12,1.23-8.38,1.23-8.38l.12-.61,1.66-8.6-10.22-6.14-1.48-.81s-.3,2.38-.64,5.35c0,.14,0,.28,0,.42s-.05.33-.06.49c-.06.44-.11.89-.16,1.34s-.07.68-.1,1-.06.72-.1,1.08A56.88,56.88,0,0,0,135.35,128.35Z" style="fill: rgb(221, 106, 87);"></path><path d="M136,116.26a17.57,17.57,0,0,0,10.68,10.2l1.66-8.6-10.22-6.14-1.48-.81S136.29,113.29,136,116.26Z" style="fill:#263238"></path><path d="M160.73,104.53c1.32,15.31-7.7,17.83-11,18.11-3,.25-13.23.74-16.12-14.36s3.81-20.54,10.64-21.48S159.42,89.22,160.73,104.53Z" style="fill: rgb(221, 106, 87);"></path><path d="M157.52,101.32c-.36,0-.69-.12-1-.18a1.73,1.73,0,0,1-1-.4.54.54,0,0,1,0-.66,1.35,1.35,0,0,1,1.33-.36,2,2,0,0,1,1.27.66A.59.59,0,0,1,157.52,101.32Z" style="fill:#263238"></path><path d="M147.68,101.65a9.09,9.09,0,0,0,1-.25,1.69,1.69,0,0,0,1-.46.54.54,0,0,0,0-.66,1.37,1.37,0,0,0-1.35-.28,2,2,0,0,0-1.22.74A.58.58,0,0,0,147.68,101.65Z" style="fill:#263238"></path><path d="M149.84,105.46s-.08.06-.08.1c.09,1,0,2.25-.91,2.65a0,0,0,0,0,0,.06C150,108,150.09,106.44,149.84,105.46Z" style="fill:#263238"></path><path d="M148.85,104.42c-1.69,0-1.64,3.34-.08,3.38S150.26,104.45,148.85,104.42Z" style="fill:#263238"></path><path d="M148.19,104.61c-.29.2-.58.54-.93.58s-.73-.3-1-.64c0,0-.06,0-.06,0,0,.65.26,1.31,1,1.39s1.08-.5,1.23-1.15C148.41,104.71,148.31,104.53,148.19,104.61Z" style="fill:#263238"></path><path d="M155.61,105.21s.09.05.09.1c0,1,.12,2.25,1.06,2.59,0,0,0,.06,0,0C155.6,107.8,155.42,106.2,155.61,105.21Z" style="fill:#263238"></path><path d="M156.54,104.12c1.68-.14,1.84,3.23.28,3.36S155.13,104.23,156.54,104.12Z" style="fill:#263238"></path><path d="M157.25,104.3c.28.17.56.48.88.49s.62-.37.84-.73c0,0,.05,0,.06,0,0,.65-.14,1.33-.75,1.48s-1-.39-1.18-1C157.06,104.42,157.14,104.24,157.25,104.3Z" style="fill:#263238"></path><path d="M149.72,114c.24.26.48.6.86.64a2.74,2.74,0,0,0,1.13-.22,0,0,0,0,1,0,0,1.43,1.43,0,0,1-1.35.53,1.12,1.12,0,0,1-.79-1C149.6,114,149.68,114,149.72,114Z" style="fill:#263238"></path><path d="M154.36,109.9s.26,1.55.28,2.29c0,.07-.18.11-.43.13,0,0,0,0,0,0a3.51,3.51,0,0,1-3.44-1.22.08.08,0,0,1,.11-.1,5.25,5.25,0,0,0,3.22.83c0-.21-.53-2.65-.41-2.66a6.08,6.08,0,0,1,1.68.33c-.44-3.26-1.4-6.42-1.79-9.67,0-.11.15-.15.19,0a53.1,53.1,0,0,1,2.37,10.33C156.19,110.53,154.66,110,154.36,109.9Z" style="fill:#263238"></path><path d="M154,112.19a4.3,4.3,0,0,1-1.64,1.38,1.87,1.87,0,0,1-1.15.13c-.84-.19-.89-1-.77-1.61a4.63,4.63,0,0,1,.33-1A5.45,5.45,0,0,0,154,112.19Z" style="fill:#263238"></path><path d="M152.37,113.57a1.87,1.87,0,0,1-1.15.13c-.84-.19-.89-1-.77-1.61A2,2,0,0,1,152.37,113.57Z" style="fill:#ff9bbc"></path><path d="M134.27,107.51c1.66-.12,5.89-4.74,5.89-12.73,0,0-.5,7.17-1,8.23s2.37-2.6,2.46-9a26,26,0,0,0,6.66,3.32c3.06.81,4.92.75,5.13.52s-4.28-1.56-5.52-2.93c0,0,8.15,3.63,11.89,3.85.43,0,.8-8.85-5-12.52s-14.89.54-17.31,3c0,0-2.88.45-5.94,4.77S132.49,107.65,134.27,107.51Z" style="fill:#263238"></path><path d="M136.13,109.25s-3.35-4.8-5.52-3.6.33,8.14,2.89,9.1a2.6,2.6,0,0,0,3.48-1.4Z" style="fill: rgb(221, 106, 87);"></path><path d="M131.38,107.62s0,.06,0,.07a6.6,6.6,0,0,1,3.4,4.11,1.44,1.44,0,0,0-2.15-.39c-.05,0,0,.1,0,.09a1.63,1.63,0,0,1,1.76.56,7.88,7.88,0,0,1,.84,1.43c.08.16.37.07.31-.11l0,0C135.6,111.05,133.83,107.85,131.38,107.62Z" style="fill:#263238"></path><path d="M137,113.35a2.83,2.83,0,0,1-1.3,1.39,1.75,1.75,0,0,1-.47.17,2.61,2.61,0,0,1-1.15,0,4.32,4.32,0,0,1-.53-.15h0c-2.55-1-5.08-7.91-2.89-9.1s5.53,3.6,5.53,3.6Z" style="fill: rgb(221, 106, 87);"></path><path d="M131.38,107.62s0,.06,0,.07a6.6,6.6,0,0,1,3.4,4.11,1.44,1.44,0,0,0-2.15-.39c-.05,0,0,.1,0,.09a1.63,1.63,0,0,1,1.76.56,7.88,7.88,0,0,1,.84,1.43c.08.16.37.07.31-.11l0,0C135.6,111.05,133.83,107.85,131.38,107.62Z" style="fill:#263238"></path><path d="M134.16,117.7h0s0,0,0,0h0Z" style="fill:#334257"></path><path d="M134.16,117.71s0,0,0,0h0Z" style="fill:#334257"></path><path d="M134.18,117.72h0Z" style="fill:#334257"></path><path d="M134.23,117.7h0Z" style="fill:#334257"></path><path d="M134.24,117.7a0,0,0,0,1,0,0h0Z" style="fill:#334257"></path><path d="M135.42,117.06a2.59,2.59,0,0,1-.33,1,1,1,0,0,1-1.6.24,3,3,0,0,1-.61-1.79,5.71,5.71,0,0,1,.13-2.06,3.13,3.13,0,0,0,.86.37,3.48,3.48,0,0,0-.1.67c0,.31,0,.63,0,.94a4,4,0,0,0,.13.71l.06.19,0,.08c0,.08.08.14.12.21s0,0,0,0,0,0,0,0,0,0,0,0h0a.07.07,0,0,0,.06,0h0l0,0h0s0,0,0,0a1.33,1.33,0,0,1,.06-.12l0-.06a.43.43,0,0,0,0-.11,1.17,1.17,0,0,0,.06-.2,2.57,2.57,0,0,0,.06-.4,7.24,7.24,0,0,0,0-1.14,2.67,2.67,0,0,0-.1-.64c0-.09-.05-.17-.07-.25l0,0h0s0,0,0-.08a.33.33,0,0,1,0-.06h0a0,0,0,0,1,0,0c-.55-.06-.54-.94,0-.91s1,.65,1.09,1.27c.05.28.08.54.1.77A7.62,7.62,0,0,1,135.42,117.06Z" style="fill:#334257"></path><path d="M146.47,127.06l-2.05,7-9.15-7.7-2.1,3s9.44,12.71,9.43,12.1l2.22-6,4.37,3.64-1.28-10.07Z" style="fill:#ebebeb"></path><path d="M148.84,134c-.27-1.66-.49-3.33-.84-5,0-.06-.11-.08-.11,0-.18,1.64.88,8,1,9.5v0c-.19-.16-4-3.19-4.07-3.13-.52,1-2.14,5.38-2.25,5.78-1.49-2-7.77-10-9.49-11.83-.05-.05-.14,0-.1.07,1.36,2.15,9.5,12.63,9.59,12.59a61.41,61.41,0,0,0,2.31-6.39,44.85,44.85,0,0,0,4.59,3.88A52.94,52.94,0,0,0,148.84,134Z" style="fill:#263238"></path><polygon points="169.88 137.33 179.66 179.56 171.82 181.61 159.59 140.03 169.88 137.33" style="fill:#263238"></polygon><path d="M160.82,123.75h0a8.44,8.44,0,0,0-6,10.3l.74,2.82a7.91,7.91,0,0,0,9.65,5.64l1-.27a7.91,7.91,0,0,0,5.64-9.65l-.74-2.82A8.44,8.44,0,0,0,160.82,123.75Z" style="fill:#a6a6a6"></path><rect x="154.5" y="132.82" width="17.93" height="1.84" transform="translate(-28.56 45.8) rotate(-14.68)" style="fill:#c7c7c7"></rect><rect x="158.24" y="140.48" width="18.68" height="17.88" transform="translate(-30.69 44.08) rotate(-13.74)" style="fill:#455a64"></rect><g id="freepik--aiZGp2--inject-71"><path d="M163.4,147.31a8.56,8.56,0,0,0,0,2.72h0l-2.22.53h0l0-.07c0-.06,0-.12,0-.18a5.82,5.82,0,0,1-.07-.93,7.1,7.1,0,0,1,.17-1.53.06.06,0,0,1,.05-.05l2.08-.5Z" style="fill:#fff"></path><path d="M164.71,153.09h0l-2.07.5s0,0-.05,0a6.56,6.56,0,0,1-.91-1.47,7.15,7.15,0,0,1-.29-.77l0,0v-.06h0l2.21-.54s0,0,.06,0,.11.36.17.53a7.81,7.81,0,0,0,.35.84,6.9,6.9,0,0,0,.55.95Z" style="fill:#fff"></path><path d="M173.71,151.63l0,0a5.7,5.7,0,0,1-.4.91,6.46,6.46,0,0,1-.68,1,6.83,6.83,0,0,1-.85.85,6.2,6.2,0,0,1-.95.66,6.34,6.34,0,0,1-.83.4l-.08,0-.05,0-.06,0,.05-.06a7.08,7.08,0,0,0,1.27-2,8.37,8.37,0,0,0,.4-1.29.07.07,0,0,1,.05,0l2.11-.51Z" style="fill:#fff"></path><path d="M170.68,148.29l-3,.71-.62-2.58h0l2.27-.55s0,0,.05,0a7.64,7.64,0,0,1,.84,1.4c.11.26.22.52.31.79C170.63,148.14,170.65,148.21,170.68,148.29Z" style="fill:#fff"></path><path d="M170.83,149l0,.18c0,.15,0,.3.06.44s0,.41.05.62a8.74,8.74,0,0,1-.08,1.35.06.06,0,0,1,0,.05l-2.32.56h0l-.6-2.5Z" style="fill:#fff"></path><path d="M166.45,146.6l.62,2.58-2.88.69c0-.07,0-.13,0-.2s0-.29-.05-.44,0-.46,0-.68a7,7,0,0,1,.11-1.37.07.07,0,0,1,0-.05l2.2-.53Z" style="fill:#fff"></path><path d="M167.24,149.88c.19.81.39,1.62.58,2.43v0h0l-2.26.55s0,0-.06,0a6.49,6.49,0,0,1-.7-1.2c-.1-.22-.19-.44-.27-.67s-.1-.3-.15-.45h0l2.81-.68S167.23,149.85,167.24,149.88Z" style="fill:#fff"></path><path d="M173.81,147.55l-2.42.59a8.39,8.39,0,0,0-1.18-2.47h0l2.22-.53s0,0,.06,0a6.39,6.39,0,0,1,.94,1.48,5.91,5.91,0,0,1,.34.88S173.81,147.54,173.81,147.55Z" style="fill:#fff"></path><path d="M174,148.2l0,.17c0,.23.06.45.08.67a6.24,6.24,0,0,1-.1,1.56c0,.09,0,.17,0,.25s0,0,0,0l-2.22.54h0a2.11,2.11,0,0,0,0-.25,7.44,7.44,0,0,0,0-1.25,6.91,6.91,0,0,0-.11-.9,1.55,1.55,0,0,0,0-.21s0,0,0,0h0Z" style="fill:#fff"></path><path d="M171.93,144.56h0l-2.11.51s0,0-.06,0a7.62,7.62,0,0,0-1.42-1.3,5.32,5.32,0,0,0-1-.55l-.52-.22h0l0,0,0-.05a6.59,6.59,0,0,1,2.3.13A6.29,6.29,0,0,1,171.93,144.56Z" style="fill:#fff"></path><path d="M168.25,155.91l-.05,0a5.85,5.85,0,0,1-.73,0,6.42,6.42,0,0,1-2.78-.68,7.22,7.22,0,0,1-.93-.57,8.14,8.14,0,0,1-.63-.54v0h0l2-.47s0,0,.06,0a7.38,7.38,0,0,0,2.08,1.74,7.16,7.16,0,0,0,1,.46Z" style="fill:#fff"></path><path d="M165.21,143.37l-.25.29a8.24,8.24,0,0,0-.74,1.11,6.81,6.81,0,0,0-.65,1.67l0,.11a0,0,0,0,1,0,0l-.1,0-1.93.46a6.48,6.48,0,0,1,3.7-3.75v0Z" style="fill:#fff"></path><path d="M170.72,152.35a6.61,6.61,0,0,1-.65,1.55,6.25,6.25,0,0,1-.89,1.22l-.54-2.27Z" style="fill:#fff"></path><path d="M168,153l.53,2.22a6.6,6.6,0,0,1-2.53-1.74Z" style="fill:#fff"></path><path d="M169,145.27l-2,.48-.51-2.11a6.07,6.07,0,0,1,1.35.67A7.58,7.58,0,0,1,169,145.27Z" style="fill:#fff"></path><path d="M165.79,143.86l.5,2.07-1.93.46A6.37,6.37,0,0,1,165.79,143.86Z" style="fill:#fff"></path></g><path d="M123.25,144c-7.84,15.28-15.91,47.52-11.75,54.89s35.3,3.89,46.69.85c3.48-.94-2.93-30.2-6.64-29.15-5.24,1.48-19,5.48-19.47,4-.39-1.28,2.11-19.06,1.5-34.35C132.92,123.38,125.93,138.78,123.25,144Z" style="fill: rgb(221, 106, 87);"></path><path d="M184.25,161.8a4.38,4.38,0,0,1,.26,5,6.48,6.48,0,0,1,3.48,2.72c1.31,2.34-1.78,5.42-1.78,5.42a8,8,0,0,1,3.21,3.46c1,2.36-1.64,5.91-1.64,5.91a7,7,0,0,1,.91,4.82c-.95,4.41-7.43,6.76-11.53,8.3s-17.19,2-19.67,2.39l-10.08-26.25s16.45-12.12,21.53-13.24C173.22,159.38,182.06,159.18,184.25,161.8Z" style="fill: rgb(221, 106, 87);"></path><path d="M184.16,166.44c-4.79-.09-9.35,1.25-14,2.32a.08.08,0,0,0,0,.16c4.59-1.12,9.34-1.32,14-2.25A.12.12,0,0,0,184.16,166.44Z" style="fill:#263238"></path><path d="M186,174.63a12.5,12.5,0,0,0-3.2.67c-1.12.32-2.22.66-3.33,1q-3.3,1.06-6.56,2.29c-.1,0-.07.19,0,.16,2.2-.7,4.41-1.37,6.64-2l3.35-.89a14.73,14.73,0,0,0,3.13-1A.16.16,0,0,0,186,174.63Z" style="fill:#263238"></path><path d="M187.69,184.34a8.67,8.67,0,0,0-2.85.76l-3,1c-2,.67-4,1.33-6,1.93-.1,0-.06.19,0,.16,2.06-.6,4.13-1.16,6.19-1.77l3-.92a8.35,8.35,0,0,0,2.66-1.07A.06.06,0,0,0,187.69,184.34Z" style="fill:#263238"></path><path d="M153.35,168.92l-1.24,33.51s-39.36,4.84-43.15-4.93,12.66-52.91,16.32-59.61c1-1.9,4-6.32,5.88-6.22,2.09.12,2.44,3.11,3.6,10,1.55,9.13-.72,32.16,0,33.08S153.35,168.92,153.35,168.92Z" style="fill:#ebebeb"></path><path d="M152.37,201.1a.12.12,0,0,0-.23,0c0,.41,0,.83-.08,1.24-1.11,0-6.13.55-6.83.65-.11,0-.11.27,0,.27a68.14,68.14,0,0,0,7.21-.54A10.69,10.69,0,0,0,152.37,201.1Z" style="fill:#263238"></path><path d="M149.1,170.15l-3,34.76s-32,2.72-36.91-6.56c-5.45-10.39,12.46-53.76,16.12-60.46,1-1.9,4-6.32,5.88-6.22,2.09.12,2.44,3.11,3.6,10,1.55,9.13-.65,31.39.09,32.31S149.1,170.15,149.1,170.15Z" style="fill:#334257"></path><path d="M131.21,138a.54.54,0,0,1-.54.54.55.55,0,0,1-.55-.54.55.55,0,0,1,.55-.55A.55.55,0,0,1,131.21,138Zm-7.88,9.32a.55.55,0,0,0-.54.55.54.54,0,0,0,.54.54.55.55,0,0,0,.55-.54A.55.55,0,0,0,123.33,147.35Zm7.34,0a.55.55,0,0,0-.55.55.55.55,0,0,0,.55.54.54.54,0,0,0,.54-.54A.55.55,0,0,0,130.67,147.35ZM127,142.43a.55.55,0,1,0,.54.55A.54.54,0,0,0,127,142.43Zm7.33,0a.55.55,0,1,0,.55.55A.54.54,0,0,0,134.33,142.43Zm-11,14.79a.55.55,0,0,0,0,1.09.55.55,0,1,0,0-1.09Zm7.34,0a.55.55,0,1,0,0,1.09.55.55,0,0,0,0-1.09Zm-11-4.92a.55.55,0,1,0,.55.54A.54.54,0,0,0,119.66,152.3Zm7.34,0a.55.55,0,1,0,.54.54A.54.54,0,0,0,127,152.3Zm7.33,0a.55.55,0,1,0,.55.54A.54.54,0,0,0,134.33,152.3ZM116,167.09a.55.55,0,1,0,0,1.09.55.55,0,0,0,0-1.09Zm7.33,0a.55.55,0,0,0,0,1.09.55.55,0,1,0,0-1.09Zm7.34,0a.55.55,0,1,0,0,1.09.55.55,0,0,0,0-1.09Zm-11-4.92a.54.54,0,0,0-.54.54.55.55,0,1,0,1.09,0A.54.54,0,0,0,119.66,162.17Zm7.34,0a.54.54,0,0,0-.54.54.54.54,0,1,0,1.08,0A.54.54,0,0,0,127,162.17Zm7.33,0a.54.54,0,0,0-.54.54.55.55,0,1,0,1.09,0A.54.54,0,0,0,134.33,162.17ZM116,177a.55.55,0,0,0-.55.54.55.55,0,0,0,.55.55.55.55,0,0,0,.54-.55A.54.54,0,0,0,116,177Zm7.33,0a.54.54,0,0,0-.54.54.55.55,0,0,0,.54.55.55.55,0,0,0,.55-.55A.55.55,0,0,0,123.33,177Zm7.34,0a.55.55,0,0,0-.55.54.55.55,0,0,0,.55.55.55.55,0,0,0,.54-.55A.54.54,0,0,0,130.67,177Zm7.33,0a.54.54,0,0,0-.54.54.55.55,0,0,0,.54.55.55.55,0,0,0,.55-.55A.55.55,0,0,0,138,177Zm7.34,0a.55.55,0,0,0-.55.54.55.55,0,0,0,.55.55.55.55,0,0,0,.54-.55A.54.54,0,0,0,145.34,177Zm-33-4.92a.45.45,0,0,0-.2,0l-.24.83a.56.56,0,0,0,.44.22.55.55,0,0,0,.54-.55A.54.54,0,0,0,112.33,172Zm7.33,0a.54.54,0,0,0-.54.54.55.55,0,1,0,1.09,0A.54.54,0,0,0,119.66,172Zm7.34,0a.54.54,0,0,0-.54.54.54.54,0,1,0,1.08,0A.54.54,0,0,0,127,172Zm7.69.13a.55.55,0,0,0-.36-.13.54.54,0,0,0-.54.54.55.55,0,0,0,.54.55.51.51,0,0,0,.37-.14h0C134.69,172.75,134.69,172.48,134.69,172.17Zm6.46.55a.54.54,0,0,0,1.06-.14.47.47,0,0,0,0-.17Zm7.31-.14a.55.55,0,0,0,.38.52l.09-1A.53.53,0,0,0,148.46,172.58Zm-39.8,14.25h0c-.06.36-.11.72-.15,1.07l.16,0a.55.55,0,0,0,.55-.55A.55.55,0,0,0,108.66,186.83Zm7.34,0a.55.55,0,0,0-.55.54.55.55,0,0,0,.55.55.55.55,0,0,0,.54-.55A.54.54,0,0,0,116,186.83Zm7.33,0a.54.54,0,0,0-.54.54.55.55,0,0,0,.54.55.55.55,0,0,0,.55-.55A.55.55,0,0,0,123.33,186.83Zm7.34,0a.55.55,0,0,0-.55.54.55.55,0,0,0,.55.55.55.55,0,0,0,.54-.55A.54.54,0,0,0,130.67,186.83Zm7.33,0a.54.54,0,0,0-.54.54.55.55,0,0,0,.54.55.55.55,0,0,0,.55-.55A.55.55,0,0,0,138,186.83Zm7.34,0a.55.55,0,0,0-.55.54.55.55,0,0,0,.55.55.55.55,0,0,0,.54-.55A.54.54,0,0,0,145.34,186.83Zm-33-4.92a.55.55,0,0,0-.55.54.55.55,0,0,0,.55.55.55.55,0,0,0,.54-.55A.54.54,0,0,0,112.33,181.91Zm7.33,0a.54.54,0,0,0-.54.54.55.55,0,1,0,1.09,0A.54.54,0,0,0,119.66,181.91Zm7.34,0a.54.54,0,0,0-.54.54.54.54,0,1,0,1.08,0A.54.54,0,0,0,127,181.91Zm7.33,0a.54.54,0,0,0-.54.54.55.55,0,1,0,1.09,0A.54.54,0,0,0,134.33,181.91Zm7.34,0a.54.54,0,0,0-.54.54.54.54,0,1,0,1.08,0A.54.54,0,0,0,141.67,181.91Zm-33,14.79h-.1a8.92,8.92,0,0,0,.32,1,.54.54,0,0,0-.22-1Zm7.34,0a.55.55,0,0,0-.55.54.55.55,0,0,0,.55.55.55.55,0,0,0,.54-.55A.54.54,0,0,0,116,196.7Zm7.33,0a.54.54,0,0,0-.54.54.55.55,0,0,0,.54.55.55.55,0,0,0,.55-.55A.55.55,0,0,0,123.33,196.7Zm7.34,0a.55.55,0,0,0-.55.54.55.55,0,0,0,.55.55.55.55,0,0,0,.54-.55A.54.54,0,0,0,130.67,196.7Zm7.33,0a.54.54,0,0,0-.54.54.55.55,0,0,0,.54.55.55.55,0,0,0,.55-.55A.55.55,0,0,0,138,196.7Zm7.34,0a.55.55,0,0,0-.55.54.55.55,0,0,0,.55.55.55.55,0,0,0,.54-.55A.54.54,0,0,0,145.34,196.7Zm-33-4.92a.55.55,0,0,0-.55.54.55.55,0,0,0,.55.55.55.55,0,0,0,.54-.55A.54.54,0,0,0,112.33,191.78Zm7.33,0a.54.54,0,0,0-.54.54.55.55,0,1,0,1.09,0A.54.54,0,0,0,119.66,191.78Zm7.34,0a.54.54,0,0,0-.54.54.54.54,0,1,0,1.08,0A.54.54,0,0,0,127,191.78Zm7.33,0a.54.54,0,0,0-.54.54.55.55,0,1,0,1.09,0A.54.54,0,0,0,134.33,191.78Zm7.34,0a.54.54,0,0,0-.54.54.54.54,0,1,0,1.08,0A.54.54,0,0,0,141.67,191.78Zm-22,9.87a.54.54,0,0,0-.54.54.55.55,0,1,0,1.09,0A.54.54,0,0,0,119.66,201.65Zm7.34,0a.54.54,0,0,0-.54.54.54.54,0,1,0,1.08,0A.54.54,0,0,0,127,201.65Zm7.33,0a.54.54,0,0,0-.54.54.55.55,0,1,0,1.09,0A.54.54,0,0,0,134.33,201.65Zm7.34,0a.54.54,0,0,0-.54.54.54.54,0,1,0,1.08,0A.54.54,0,0,0,141.67,201.65Z" style="fill:#fff"></path><path d="M149.07,169.85C145.13,171,135,173.49,135,173.49s0-3.13.06-5.38.17-4.65.24-7c0-1.47.08-2.94.11-4.41.24-.86.48-1.73.7-2.59.38-1.43.68-2.89,1-4.33,0-.06-.07-.09-.09,0a35.61,35.61,0,0,0-1.39,4.28c-.07.27-.12.54-.18.82,0-.24,0-.48,0-.71,0-1.19,0-2.37,0-3.56s.09-2.22,0-3.31c0-.07-.1-.06-.11,0-.18,1.17-.18,2.37-.27,3.54s-.18,2.36-.25,3.54c-.14,2.32-.24,4.64-.36,7s-.21,4.64-.29,7a43.06,43.06,0,0,0,.1,6.22,109,109,0,0,0,14.7-4.26C149.21,170.17,149.3,169.78,149.07,169.85Z" style="fill:#263238"></path><path d="M139.94,202.35c.28-1.15.34-2.34.52-3.51s.3-2.34.42-3.51c.24-2.26.45-4.53.64-6.79s.38-4.53.56-6.8.51-4.72.51-7.07a.08.08,0,0,0-.16,0c-.44,2.31-.59,4.69-.85,7s-.5,4.6-.74,6.91-.48,4.61-.68,6.92c-.1,1.13-.18,2.26-.23,3.4s-.21,2.29-.15,3.43C139.79,202.45,139.92,202.43,139.94,202.35Z" style="fill:#263238"></path><path d="M110,182.63a144.72,144.72,0,0,1,4.52-17.87c1-3.27,2.2-6.52,3.38-9.75,0-.08-.11-.14-.15-.06a111,111,0,0,0-6.27,18c-.81,3.1-1.52,6.24-2.11,9.4a81.26,81.26,0,0,0-1.41,9.45,10.48,10.48,0,0,0,2.81,8.51c.07.07.18,0,.1-.12-2.14-2.1-2.39-5.34-2.23-8.17A76.84,76.84,0,0,1,110,182.63Z" style="fill:#263238"></path></g></svg>